<svg viewBox="0 0 768 415" xmlns="http://www.w3.org/2000/svg" xmlns:xlink="http://www.w3.org/1999/xlink"><linearGradient id="a" gradientTransform="matrix(0 1 -1 0 617 -200)" gradientUnits="userSpaceOnUse" x1="408.5" x2="408.5" y1="406.39" y2="-63.44"><stop offset="0" stop-color="#0982fe"/><stop offset="1" stop-color="#3ca1d2"/></linearGradient><linearGradient id="b" x1="86" x2="86" xlink:href="#a" y1="340.8" y2="106.36"/><clipPath id="c"><path d="m11 74h149v21h-149z"/></clipPath><clipPath id="d"><path d="m11.5 381.5h149v24h-149z"/></clipPath><linearGradient id="e" x1="595" x2="595" xlink:href="#a" y1="388.67" y2="244.66"/><clipPath id="f"><path d="m741.5 255.5v138h-291v-138h-19v149.38h327v-149.38z"/></clipPath><path d="m0 414.5h768" fill="none" stroke="#8c8c8c" stroke-miterlimit="10"/><path d="m137 204.58a3.72 3.72 0 1 1 -3.73 3.72 3.71 3.71 0 0 1 3.73-3.72z" fill="#8c8c8c"/><rect fill="#b3b3b3" height="591" rx="20.56" stroke="#b3b3b3" stroke-miterlimit="10" stroke-width="1.2" transform="matrix(0 -1 1 0 199.5 617.5)" width="411" x="203" y="-86.5"/><rect fill="#0b3051" height="403.72" rx="19.15" width="582.58" x="117.19" y="7.14"/><path d="m219-43h379v503h-379z" fill="url(#a)" transform="matrix(0 -1 1 0 200 617)"/><path d="m158 50.5h2" fill="none" stroke="#fff" stroke-miterlimit="10"/><path d="m161.99 50.5h495.01" fill="none" stroke="#fff" stroke-dasharray="3.98 1.99" stroke-miterlimit="10"/><path d="m658 50.5h2" fill="none" stroke="#fff" stroke-miterlimit="10"/><path d="m183 250h32v7h-32z" fill="#5aaef9"/><rect fill="#5aaef9" height="78" rx="2.5" width="78" x="183.5" y="167.5"/><path d="m259 168a2 2 0 0 1 2 2v73a2 2 0 0 1 -2 2h-73a2 2 0 0 1 -2-2v-73a2 2 0 0 1 2-2zm0-1h-73a3 3 0 0 0 -3 3v73a3 3 0 0 0 3 3h73a3 3 0 0 0 3-3v-73a3 3 0 0 0 -3-3z" fill="#b4d9f5"/><path d="m158 167.5h2" fill="none" stroke="#fff" stroke-miterlimit="10"/><path d="m161.99 167.5h495.01" fill="none" stroke="#fff" stroke-dasharray="3.98 1.99" stroke-miterlimit="10"/><path d="m658 167.5h2" fill="none" stroke="#fff" stroke-miterlimit="10"/><path d="m183 144h32v7h-32z" fill="#5aaef9"/><rect fill="#5aaef9" height="78" rx="2.5" width="78" x="183.5" y="61.5"/><path d="m259 62a2 2 0 0 1 2 2v73a2 2 0 0 1 -2 2h-73a2 2 0 0 1 -2-2v-73a2 2 0 0 1 2-2zm0-1h-73a3 3 0 0 0 -3 3v73a3 3 0 0 0 3 3h73a3 3 0 0 0 3-3v-73a3 3 0 0 0 -3-3z" fill="#b4d9f5"/><path d="m169.5 96v7" fill="none" stroke="#0b3051"/><path d="m182.5 96v7" fill="none" stroke="#0b3051"/><path d="m169 99.5h14" fill="none" stroke="#0b3051"/><path d="m276 144h32v7h-32z" fill="#5aaef9"/><rect fill="#5aaef9" height="78" rx="2.5" width="78" x="276.5" y="61.5"/><path d="m352 62a2 2 0 0 1 2 2v73a2 2 0 0 1 -2 2h-73a2 2 0 0 1 -2-2v-73a2 2 0 0 1 2-2zm0-1h-73a3 3 0 0 0 -3 3v73a3 3 0 0 0 3 3h73a3 3 0 0 0 3-3v-73a3 3 0 0 0 -3-3z" fill="#b4d9f5"/><path d="m183 389h32v7h-32z" fill="#5aaef9"/><path d="m183.5 384.5v-75.5a2.5 2.5 0 0 1 2.5-2.5h73a2.5 2.5 0 0 1 2.5 2.5v75.5z" fill="#5aaef9"/><path d="m259 307a2 2 0 0 1 2 2v75h-77v-75a2 2 0 0 1 2-2zm0-1h-73a3 3 0 0 0 -3 3v76h79v-76a3 3 0 0 0 -3-3z" fill="#b4d9f5"/><path d="m276 389h32v7h-32z" fill="#5aaef9"/><path d="m276.5 384.5v-75.5a2.5 2.5 0 0 1 2.5-2.5h73a2.5 2.5 0 0 1 2.5 2.5v75.5z" fill="#5aaef9"/><path d="m352 307a2 2 0 0 1 2 2v75h-77v-75a2 2 0 0 1 2-2zm0-1h-73a3 3 0 0 0 -3 3v76h79v-76a3 3 0 0 0 -3-3z" fill="#b4d9f5"/><path d="m157 373h503v25h-503z" fill="#b4d9f5"/><path d="m162 372.5h2" fill="none" stroke="#fff" stroke-miterlimit="10"/><path d="m166.01 372.5h492.99" fill="none" stroke="#fff" stroke-dasharray="4.02 2.01" stroke-miterlimit="10"/><path d="m660 372.5h2" fill="none" stroke="#fff" stroke-miterlimit="10"/><path d="m157 19h503v31h-503z" fill="#b4d9f5"/><path d="m162.5 19v317" fill="none" stroke="#fff" stroke-dasharray="4 2" stroke-miterlimit="10"/><path d="m680 195a12.5 12.5 0 1 0 12.52 12.51 12.5 12.5 0 0 0 -12.52-12.51" fill="none" stroke="#b3b3b3" stroke-miterlimit="10" stroke-width="1.2"/><path d="m655.5 19v317" fill="none" stroke="#fff" stroke-dasharray="4 2" stroke-miterlimit="10"/><rect fill="#5aaef9" height="12" rx="6" stroke="#fff" stroke-miterlimit="10" width="20" x="714.5" y="319.5"/><circle cx="728.5" cy="325.5" fill="#fff" r="4.5"/><path d="m656 17.5h10v321.5h-10z" fill="#0b3051" opacity=".4"/><path d="m152 17.5h10v321.5h-10z" fill="#0b3051" opacity=".4"/><path d="m157.5 178v9" fill="none" stroke="#fff" stroke-miterlimit="10"/><path d="m219.5-42.5h379v503h-379z" fill="none" stroke="#fff" stroke-miterlimit="10" transform="matrix(0 -1 1 0 200 618)"/><path d="m0 115h1.43v13h-1.43z" fill="#b3b3b3"/><path d="m0 172h1v25h-1z" fill="#b3b3b3"/><path d="m0 140h1v25h-1z" fill="#b3b3b3"/><path d="m11 79h150v326h-150z" fill="url(#b)"/><path d="m11.5 95.5h149.5v43.5h-149.5z" fill="#b4d9f5"/><path d="m161 95.89h-150v-15.89c1-2.78 3.26-5 6-5h144z" fill="#b4d9f5"/><g clip-path="url(#c)" fill="none" stroke="#fff" stroke-miterlimit="10"><path d="m-248.46 113.89 338.4-336.51"/><path d="m-244.68 114.41 338.4-336.51" opacity=".99"/><path d="m-240.9 114.93 338.4-336.51" opacity=".98"/><path d="m-237.12 115.46 338.4-336.51" opacity=".97"/><path d="m-233.34 115.98 338.4-336.51" opacity=".96"/><path d="m-229.56 116.5 338.4-336.51" opacity=".95"/><path d="m-225.78 117.02 338.4-336.51" opacity=".95"/><path d="m-222 117.54 338.4-336.51" opacity=".94"/><path d="m-218.22 118.06 338.4-336.51" opacity=".93"/><path d="m-214.44 118.59 338.4-336.51" opacity=".92"/><path d="m-210.66 119.11 338.4-336.51" opacity=".91"/><path d="m-206.88 119.63 338.4-336.51" opacity=".9"/><path d="m-203.1 120.15 338.4-336.51" opacity=".89"/><path d="m-199.32 120.67 338.4-336.51" opacity=".88"/><path d="m-195.54 121.19 338.41-336.51" opacity=".87"/><path d="m-191.76 121.72 338.41-336.51" opacity=".86"/><path d="m-187.98 122.24 338.41-336.51" opacity=".86"/><path d="m-184.19 122.76 338.4-336.51" opacity=".85"/><path d="m-180.41 123.28 338.4-336.51" opacity=".84"/><path d="m-176.63 123.8 338.4-336.51" opacity=".83"/><path d="m-172.85 124.32 338.4-336.5" opacity=".82"/><path d="m-169.07 124.85 338.4-336.51" opacity=".81"/><path d="m-165.29 125.37 338.4-336.51" opacity=".8"/><path d="m-161.51 125.89 338.4-336.51" opacity=".79"/><path d="m-157.73 126.41 338.4-336.51" opacity=".78"/><path d="m-153.95 126.93 338.4-336.51" opacity=".77"/><path d="m-150.17 127.46 338.4-336.51" opacity=".77"/><path d="m-146.39 127.98 338.4-336.51" opacity=".76"/><path d="m-142.61 128.5 338.4-336.51" opacity=".75"/><path d="m-138.83 129.02 338.4-336.51" opacity=".74"/><path d="m-135.05 129.54 338.4-336.51" opacity=".73"/><path d="m-131.27 130.06 338.4-336.51" opacity=".72"/><path d="m-127.49 130.59 338.4-336.51" opacity=".71"/><path d="m-123.71 131.11 338.4-336.51" opacity=".7"/><path d="m-119.93 131.63 338.4-336.51" opacity=".69"/><path d="m-116.15 132.15 338.4-336.51" opacity=".68"/><path d="m-112.37 132.67 338.41-336.51" opacity=".68"/><path d="m-108.59 133.19 338.41-336.51" opacity=".67"/><path d="m-104.8 133.72 338.4-336.51" opacity=".66"/><path d="m-101.02 134.24 338.4-336.51" opacity=".65"/><path d="m-97.24 134.76 338.4-336.51" opacity=".64"/><path d="m-93.46 135.28 338.4-336.51" opacity=".63"/><path d="m-89.68 135.8 338.4-336.51" opacity=".62"/><path d="m-85.9 136.32 338.4-336.51" opacity=".61"/><path d="m-82.12 136.85 338.4-336.51" opacity=".6"/><path d="m-78.34 137.37 338.4-336.51" opacity=".59"/><path d="m-74.56 137.89 338.4-336.51" opacity=".59"/><path d="m-70.78 138.41 338.4-336.51" opacity=".58"/><path d="m-67 138.93 338.4-336.51" opacity=".57"/><path d="m-63.22 139.46 338.4-336.51" opacity=".56"/><path d="m-59.44 139.98 338.4-336.51" opacity=".55"/><path d="m-55.66 140.5 338.4-336.51" opacity=".54"/><path d="m-51.88 141.02 338.4-336.51" opacity=".53"/><path d="m-48.1 141.54 338.4-336.51" opacity=".52"/><path d="m-44.32 142.06 338.4-336.51" opacity=".51"/><path d="m-40.54 142.59 338.4-336.51" opacity=".5"/><path d="m-36.76 143.11 338.4-336.51" opacity=".5"/><path d="m-32.98 143.63 338.4-336.51" opacity=".49"/><path d="m-29.2 144.15 338.41-336.51" opacity=".48"/><path d="m-25.42 144.67 338.41-336.51" opacity=".47"/><path d="m-21.63 145.19 338.4-336.51" opacity=".46"/><path d="m-17.85 145.72 338.4-336.51" opacity=".45"/><path d="m-14.07 146.24 338.4-336.51" opacity=".44"/><path d="m-10.29 146.76 338.4-336.51" opacity=".43"/><path d="m-6.51 147.28 338.4-336.51" opacity=".42"/><path d="m-2.73 147.8 338.4-336.51" opacity=".41"/><path d="m1.05 148.32 338.4-336.51" opacity=".41"/><path d="m4.83 148.85 338.4-336.51" opacity=".4"/><path d="m8.61 149.37 338.4-336.51" opacity=".39"/><path d="m12.39 149.89 338.4-336.51" opacity=".38"/><path d="m16.17 150.41 338.4-336.51" opacity=".37"/><path d="m19.95 150.93 338.4-336.51" opacity=".36"/><path d="m23.73 151.45 338.4-336.5" opacity=".35"/><path d="m27.51 151.98 338.4-336.51" opacity=".34"/><path d="m31.29 152.5 338.4-336.51" opacity=".33"/><path d="m35.07 153.02 338.4-336.51" opacity=".32"/><path d="m38.85 153.54 338.4-336.51" opacity=".32"/><path d="m42.63 154.06 338.4-336.51" opacity=".31"/><path d="m46.41 154.59 338.4-336.51" opacity=".3"/><path d="m50.19 155.11 338.41-336.51" opacity=".29"/><path d="m53.97 155.63 338.41-336.51" opacity=".28"/><path d="m57.75 156.15 338.41-336.51" opacity=".27"/><path d="m61.54 156.67 338.4-336.51" opacity=".26"/><path d="m65.32 157.19 338.4-336.51" opacity=".25"/><path d="m69.1 157.72 338.4-336.51" opacity=".24"/><path d="m72.88 158.24 338.4-336.51" opacity=".23"/><path d="m76.66 158.76 338.4-336.51" opacity=".23"/><path d="m80.44 159.28 338.4-336.51" opacity=".22"/><path d="m84.22 159.8 338.4-336.51" opacity=".21"/><path d="m88 160.32 338.4-336.51" opacity=".2"/><path d="m91.78 160.85 338.4-336.51" opacity=".19"/><path d="m95.56 161.37 338.4-336.51" opacity=".18"/><path d="m99.34 161.89 338.4-336.51" opacity=".17"/><path d="m103.12 162.41 338.4-336.51" opacity=".16"/><path d="m106.9 162.93 338.4-336.51" opacity=".15"/><path d="m110.68 163.45 338.4-336.51" opacity=".14"/><path d="m114.46 163.98 338.4-336.51" opacity=".14"/><path d="m118.24 164.5 338.4-336.51" opacity=".13"/><path d="m122.02 165.02 338.4-336.51" opacity=".12"/><path d="m125.8 165.54 338.4-336.51" opacity=".11"/><path d="m129.58 166.06 338.4-336.51" opacity=".1"/><path d="m133.36 166.59 338.41-336.51" opacity=".09"/><path d="m137.14 167.11 338.41-336.51" opacity=".08"/><path d="m140.93 167.63 338.4-336.51" opacity=".07"/><path d="m144.71 168.15 338.4-336.51" opacity=".06"/><path d="m148.49 168.67 338.4-336.51" opacity=".05"/><path d="m152.27 169.19 338.4-336.51" opacity=".05"/><path d="m156.05 169.72 338.4-336.51" opacity=".04"/><path d="m159.83 170.24 338.4-336.51" opacity=".03"/><path d="m163.61 170.76 338.4-336.51" opacity=".02"/><path d="m167.39 171.28 338.4-336.51" opacity=".01"/><path d="m171.17 171.8 338.4-336.51" opacity="0"/></g><path d="m10 381h152v24h-152z" fill="#0b3051" opacity=".4"/><path d="m161 404.89h-150v-25.89c1-2.78 3.26-5 6-5h144z" fill="#b4d9f5"/><g clip-path="url(#d)" fill="none" stroke="#fff" stroke-miterlimit="10"><path d="m-128.96 452.39 338.4-336.51"/><path d="m-125.18 452.91 338.4-336.51" opacity=".99"/><path d="m-121.4 453.43 338.4-336.51" opacity=".98"/><path d="m-117.62 453.96 338.4-336.51" opacity=".97"/><path d="m-113.84 454.48 338.4-336.51" opacity=".96"/><path d="m-110.06 455 338.4-336.51" opacity=".95"/><path d="m-106.28 455.52 338.4-336.51" opacity=".95"/><path d="m-102.5 456.04 338.4-336.51" opacity=".94"/><path d="m-98.72 456.56 338.4-336.51" opacity=".93"/><path d="m-94.94 457.09 338.4-336.51" opacity=".92"/><path d="m-91.16 457.61 338.4-336.51" opacity=".91"/><path d="m-87.38 458.13 338.4-336.51" opacity=".9"/><path d="m-83.6 458.65 338.4-336.51" opacity=".89"/><path d="m-79.82 459.17 338.4-336.51" opacity=".88"/><path d="m-76.04 459.69 338.41-336.51" opacity=".87"/><path d="m-72.26 460.22 338.41-336.51" opacity=".86"/><path d="m-68.48 460.74 338.41-336.51" opacity=".86"/><path d="m-64.69 461.26 338.4-336.51" opacity=".85"/><path d="m-60.91 461.78 338.4-336.51" opacity=".84"/><path d="m-57.13 462.3 338.4-336.51" opacity=".83"/><path d="m-53.35 462.82 338.4-336.5" opacity=".82"/><path d="m-49.57 463.35 338.4-336.51" opacity=".81"/><path d="m-45.79 463.87 338.4-336.51" opacity=".8"/><path d="m-42.01 464.39 338.4-336.51" opacity=".79"/><path d="m-38.23 464.91 338.4-336.51" opacity=".78"/><path d="m-34.45 465.43 338.4-336.51" opacity=".77"/><path d="m-30.67 465.96 338.4-336.51" opacity=".77"/><path d="m-26.89 466.48 338.4-336.51" opacity=".76"/><path d="m-23.11 467 338.4-336.51" opacity=".75"/><path d="m-19.33 467.52 338.4-336.51" opacity=".74"/><path d="m-15.55 468.04 338.4-336.51" opacity=".73"/><path d="m-11.77 468.56 338.4-336.51" opacity=".72"/><path d="m-7.99 469.09 338.4-336.51" opacity=".71"/><path d="m-4.21 469.61 338.4-336.51" opacity=".7"/><path d="m-.43 470.13 338.4-336.51" opacity=".69"/><path d="m3.35 470.65 338.4-336.51" opacity=".68"/><path d="m7.13 471.17 338.41-336.51" opacity=".68"/><path d="m10.91 471.69 338.41-336.51" opacity=".67"/><path d="m14.7 472.22 338.4-336.51" opacity=".66"/><path d="m18.48 472.74 338.4-336.51" opacity=".65"/><path d="m22.26 473.26 338.4-336.51" opacity=".64"/><path d="m26.04 473.78 338.4-336.51" opacity=".63"/><path d="m29.82 474.3 338.4-336.51" opacity=".62"/><path d="m33.6 474.82 338.4-336.51" opacity=".61"/><path d="m37.38 475.35 338.4-336.51" opacity=".6"/><path d="m41.16 475.87 338.4-336.51" opacity=".59"/><path d="m44.94 476.39 338.4-336.51" opacity=".59"/><path d="m48.72 476.91 338.4-336.51" opacity=".58"/><path d="m52.5 477.43 338.4-336.51" opacity=".57"/><path d="m56.28 477.96 338.4-336.51" opacity=".56"/><path d="m60.06 478.48 338.4-336.51" opacity=".55"/><path d="m63.84 479 338.4-336.51" opacity=".54"/><path d="m67.62 479.52 338.4-336.51" opacity=".53"/><path d="m71.4 480.04 338.4-336.51" opacity=".52"/><path d="m75.18 480.56 338.4-336.51" opacity=".51"/><path d="m78.96 481.09 338.4-336.51" opacity=".5"/><path d="m82.74 481.61 338.4-336.51" opacity=".5"/><path d="m86.52 482.13 338.4-336.51" opacity=".49"/><path d="m90.3 482.65 338.41-336.51" opacity=".48"/><path d="m94.08 483.17 338.41-336.51" opacity=".47"/><path d="m97.87 483.69 338.4-336.51" opacity=".46"/><path d="m101.65 484.22 338.4-336.51" opacity=".45"/><path d="m105.43 484.74 338.4-336.51" opacity=".44"/><path d="m109.21 485.26 338.4-336.51" opacity=".43"/><path d="m112.99 485.78 338.4-336.51" opacity=".42"/><path d="m116.77 486.3 338.4-336.51" opacity=".41"/><path d="m120.55 486.82 338.4-336.51" opacity=".41"/><path d="m124.33 487.35 338.4-336.51" opacity=".4"/><path d="m128.11 487.87 338.4-336.51" opacity=".39"/><path d="m131.89 488.39 338.4-336.51" opacity=".38"/><path d="m135.67 488.91 338.4-336.51" opacity=".37"/><path d="m139.45 489.43 338.4-336.51" opacity=".36"/><path d="m143.23 489.95 338.4-336.5" opacity=".35"/><path d="m147.01 490.48 338.4-336.51" opacity=".34"/><path d="m150.79 491 338.4-336.51" opacity=".33"/><path d="m154.57 491.52 338.4-336.51" opacity=".32"/><path d="m158.35 492.04 338.4-336.51" opacity=".32"/><path d="m162.13 492.56 338.4-336.51" opacity=".31"/><path d="m165.91 493.09 338.4-336.51" opacity=".3"/><path d="m169.69 493.61 338.41-336.51" opacity=".29"/><path d="m173.47 494.13 338.41-336.51" opacity=".28"/><path d="m177.25 494.65 338.41-336.51" opacity=".27"/><path d="m181.04 495.17 338.4-336.51" opacity=".26"/><path d="m184.82 495.69 338.4-336.51" opacity=".25"/><path d="m188.6 496.22 338.4-336.51" opacity=".24"/><path d="m192.38 496.74 338.4-336.51" opacity=".23"/><path d="m196.16 497.26 338.4-336.51" opacity=".23"/><path d="m199.94 497.78 338.4-336.51" opacity=".22"/><path d="m203.72 498.3 338.4-336.51" opacity=".21"/><path d="m207.5 498.82 338.4-336.51" opacity=".2"/><path d="m211.28 499.35 338.4-336.51" opacity=".19"/><path d="m215.06 499.87 338.4-336.51" opacity=".18"/><path d="m218.84 500.39 338.4-336.51" opacity=".17"/><path d="m222.62 500.91 338.4-336.51" opacity=".16"/><path d="m226.4 501.43 338.4-336.51" opacity=".15"/><path d="m230.18 501.95 338.4-336.51" opacity=".14"/><path d="m233.96 502.48 338.4-336.51" opacity=".14"/><path d="m237.74 503 338.4-336.51" opacity=".13"/><path d="m241.52 503.52 338.4-336.51" opacity=".12"/><path d="m245.3 504.04 338.4-336.51" opacity=".11"/><path d="m249.08 504.56 338.4-336.51" opacity=".1"/><path d="m252.86 505.09 338.41-336.51" opacity=".09"/><path d="m256.64 505.61 338.41-336.51" opacity=".08"/><path d="m260.43 506.13 338.4-336.51" opacity=".07"/><path d="m264.21 506.65 338.4-336.51" opacity=".06"/><path d="m267.99 507.17 338.4-336.51" opacity=".05"/><path d="m271.77 507.69 338.4-336.51" opacity=".05"/><path d="m275.55 508.22 338.4-336.51" opacity=".04"/><path d="m279.33 508.74 338.4-336.51" opacity=".03"/><path d="m283.11 509.26 338.4-336.51" opacity=".02"/><path d="m286.89 509.78 338.4-336.51" opacity=".01"/><path d="m290.67 510.3 338.4-336.51" opacity="0"/></g><path d="m19.5 372.5v-60.5a2.5 2.5 0 0 1 2.5-2.5h58a2.5 2.5 0 0 1 2.5 2.5v60.5z" fill="#5aaef9"/><path d="m80 310a2 2 0 0 1 2 2v60h-62v-60a2 2 0 0 1 2-2zm0-1h-58a3 3 0 0 0 -3 3v61h64v-61a3 3 0 0 0 -3-3z" fill="#b4d9f5"/><path d="m89.5 372.5v-60.5a2.5 2.5 0 0 1 2.5-2.5h58a2.5 2.5 0 0 1 2.5 2.5v60.5z" fill="#5aaef9"/><path d="m150 310a2 2 0 0 1 2 2v60h-62v-60a2 2 0 0 1 2-2zm0-1h-58a3 3 0 0 0 -3 3v61h64v-61a3 3 0 0 0 -3-3z" fill="#b4d9f5"/><path d="m11.04 372h149.96v19h-150z" fill="#b4d9f5"/><path d="m146.35 78a15.67 15.67 0 0 1 15.65 15.68v296.64a15.67 15.67 0 0 1 -15.65 15.68h-120.7a15.67 15.67 0 0 1 -15.65-15.68v-296.64a15.67 15.67 0 0 1 15.65-15.68zm0-10h-120.7a25.69 25.69 0 0 0 -25.65 25.68v296.64a25.69 25.69 0 0 0 25.65 25.68h120.7a25.69 25.69 0 0 0 25.65-25.68v-296.64a25.69 25.69 0 0 0 -25.65-25.68z" fill="#e1e1e1"/><path d="m146.35 78a15.67 15.67 0 0 1 15.65 15.68v296.64a15.67 15.67 0 0 1 -15.65 15.68h-120.7a15.67 15.67 0 0 1 -15.65-15.68v-296.64a15.67 15.67 0 0 1 15.65-15.68zm0-9h-120.7a24.69 24.69 0 0 0 -24.65 24.68v296.64a24.69 24.69 0 0 0 24.65 24.68h120.7a24.69 24.69 0 0 0 24.65-24.68v-296.64a24.69 24.69 0 0 0 -24.65-24.68z" fill="#b3b3b3"/><path d="m10 79.5h6v321.5h-6z" fill="#0b3051" opacity=".4"/><path d="m156 80h6v322h-6z" fill="#0b3051" opacity=".4"/><path d="m11 79h150v17h-150z" fill="#0b3051" opacity=".4"/><path d="m11 391h150v14h-150z" fill="#0b3051" opacity=".4"/><path d="m144.91 79a16.11 16.11 0 0 1 16.09 16.09v293.82a16.11 16.11 0 0 1 -16.09 16.09h-117.82a16.11 16.11 0 0 1 -16.09-16.09v-293.82a16.11 16.11 0 0 1 16.09-16.09zm0-8h-117.82a24.09 24.09 0 0 0 -24.09 24.09v293.82a24.09 24.09 0 0 0 24.09 24.09h117.82a24.09 24.09 0 0 0 24.09-24.09v-293.82a24.09 24.09 0 0 0 -24.09-24.09z" fill="#0b3051"/><path d="m130.81 72h-89.81v7c1.2 0 1.7-.2 2.65.64a3.7 3.7 0 0 1 1.16 3.1 6.88 6.88 0 0 0 .19 2.09 9.16 9.16 0 0 0 2.43 3.93 7.19 7.19 0 0 0 3.62 2 20.63 20.63 0 0 0 4.28.24h61a20.64 20.64 0 0 0 4.28-.24 7.19 7.19 0 0 0 3.62-2 9.16 9.16 0 0 0 2.43-3.93 6.89 6.89 0 0 0 .23-2.09 3.7 3.7 0 0 1 1.16-3.1c.95-.84 1.53-.64 2.73-.64z" fill="#0b3051"/><path d="m171 149h1v40h-1z" fill="#b3b3b3"/><path d="m172 149h1v40h-1z" fill="#e1e1e1"/><path d="m160.5 224v-5" fill="none" stroke="#fff"/><rect fill="none" height="17" rx="2" stroke="#67b2ec" stroke-miterlimit="10" width="17" x="664.5" y="269.5"/><path d="m432 255h326v150h-326z" fill="url(#e)"/><g clip-path="url(#f)"><path d="m425 247h334v162h-334z" fill="#b4d9f5"/><g fill="none" stroke="#fff" stroke-miterlimit="10"><path d="m303.04 385.39 338.4-336.51"/><path d="m306.82 385.91 338.4-336.51" opacity=".99"/><path d="m310.6 386.43 338.4-336.51" opacity=".98"/><path d="m314.38 386.96 338.4-336.51" opacity=".97"/><path d="m318.16 387.48 338.4-336.51" opacity=".96"/><path d="m321.94 388 338.4-336.51" opacity=".95"/><path d="m325.72 388.52 338.4-336.51" opacity=".95"/><path d="m329.5 389.04 338.4-336.51" opacity=".94"/><path d="m333.28 389.56 338.4-336.51" opacity=".93"/><path d="m337.06 390.09 338.4-336.51" opacity=".92"/><path d="m340.84 390.61 338.4-336.51" opacity=".91"/><path d="m344.62 391.13 338.4-336.51" opacity=".9"/><path d="m348.4 391.65 338.4-336.51" opacity=".89"/><path d="m352.18 392.17 338.4-336.51" opacity=".88"/><path d="m355.96 392.69 338.41-336.51" opacity=".87"/><path d="m359.74 393.22 338.41-336.51" opacity=".86"/><path d="m363.52 393.74 338.41-336.51" opacity=".86"/><path d="m367.31 394.26 338.4-336.51" opacity=".85"/><path d="m371.09 394.78 338.4-336.51" opacity=".84"/><path d="m374.87 395.3 338.4-336.51" opacity=".83"/><path d="m378.65 395.82 338.4-336.5" opacity=".82"/><path d="m382.43 396.35 338.4-336.51" opacity=".81"/><path d="m386.21 396.87 338.4-336.51" opacity=".8"/><path d="m389.99 397.39 338.4-336.51" opacity=".79"/><path d="m393.77 397.91 338.4-336.51" opacity=".78"/><path d="m397.55 398.43 338.4-336.51" opacity=".77"/><path d="m401.33 398.96 338.4-336.51" opacity=".77"/><path d="m405.11 399.48 338.4-336.51" opacity=".76"/><path d="m408.89 400 338.4-336.51" opacity=".75"/><path d="m412.67 400.52 338.4-336.51" opacity=".74"/><path d="m416.45 401.04 338.4-336.51" opacity=".73"/><path d="m420.23 401.56 338.4-336.51" opacity=".72"/><path d="m424.01 402.09 338.4-336.51" opacity=".71"/><path d="m427.79 402.61 338.4-336.51" opacity=".7"/><path d="m431.57 403.13 338.4-336.51" opacity=".69"/><path d="m435.35 403.65 338.4-336.51" opacity=".68"/><path d="m439.13 404.17 338.41-336.51" opacity=".68"/><path d="m442.91 404.69 338.41-336.51" opacity=".67"/><path d="m446.7 405.22 338.4-336.51" opacity=".66"/><path d="m450.48 405.74 338.4-336.51" opacity=".65"/><path d="m454.26 406.26 338.4-336.51" opacity=".64"/><path d="m458.04 406.78 338.4-336.51" opacity=".63"/><path d="m461.82 407.3 338.4-336.51" opacity=".62"/><path d="m465.6 407.82 338.4-336.51" opacity=".61"/><path d="m469.38 408.35 338.4-336.51" opacity=".6"/><path d="m473.16 408.87 338.4-336.51" opacity=".59"/><path d="m476.94 409.39 338.4-336.51" opacity=".59"/><path d="m480.72 409.91 338.4-336.51" opacity=".58"/><path d="m484.5 410.43 338.4-336.51" opacity=".57"/><path d="m488.28 410.96 338.4-336.51" opacity=".56"/><path d="m492.06 411.48 338.4-336.51" opacity=".55"/><path d="m495.84 412 338.4-336.51" opacity=".54"/><path d="m499.62 412.52 338.4-336.51" opacity=".53"/><path d="m503.4 413.04 338.4-336.51" opacity=".52"/><path d="m507.18 413.56 338.4-336.51" opacity=".51"/><path d="m510.96 414.09 338.4-336.51" opacity=".5"/><path d="m514.74 414.61 338.4-336.51" opacity=".5"/><path d="m518.52 415.13 338.4-336.51" opacity=".49"/><path d="m522.3 415.65 338.41-336.51" opacity=".48"/><path d="m526.08 416.17 338.41-336.51" opacity=".47"/><path d="m529.87 416.69 338.4-336.51" opacity=".46"/><path d="m533.65 417.22 338.4-336.51" opacity=".45"/><path d="m537.43 417.74 338.4-336.51" opacity=".44"/><path d="m541.21 418.26 338.4-336.51" opacity=".43"/><path d="m544.99 418.78 338.4-336.51" opacity=".42"/><path d="m548.77 419.3 338.4-336.51" opacity=".41"/><path d="m552.55 419.82 338.4-336.51" opacity=".41"/><path d="m556.33 420.35 338.4-336.51" opacity=".4"/><path d="m560.11 420.87 338.4-336.51" opacity=".39"/><path d="m563.89 421.39 338.4-336.51" opacity=".38"/><path d="m567.67 421.91 338.4-336.51" opacity=".37"/><path d="m571.45 422.43 338.4-336.51" opacity=".36"/><path d="m575.23 422.95 338.4-336.5" opacity=".35"/><path d="m579.01 423.48 338.4-336.51" opacity=".34"/><path d="m582.79 424 338.4-336.51" opacity=".33"/><path d="m586.57 424.52 338.4-336.51" opacity=".32"/><path d="m590.35 425.04 338.4-336.51" opacity=".32"/><path d="m594.13 425.56 338.4-336.51" opacity=".31"/><path d="m597.91 426.09 338.4-336.51" opacity=".3"/><path d="m601.69 426.61 338.41-336.51" opacity=".29"/><path d="m605.47 427.13 338.41-336.51" opacity=".28"/><path d="m609.25 427.65 338.41-336.51" opacity=".27"/><path d="m613.04 428.17 338.4-336.51" opacity=".26"/><path d="m616.82 428.69 338.4-336.51" opacity=".25"/><path d="m620.6 429.22 338.4-336.51" opacity=".24"/><path d="m624.38 429.74 338.4-336.51" opacity=".23"/><path d="m628.16 430.26 338.4-336.51" opacity=".23"/><path d="m631.94 430.78 338.4-336.51" opacity=".22"/><path d="m635.72 431.3 338.4-336.51" opacity=".21"/><path d="m639.5 431.82 338.4-336.51" opacity=".2"/><path d="m643.28 432.35 338.4-336.51" opacity=".19"/><path d="m647.06 432.87 338.4-336.51" opacity=".18"/><path d="m650.84 433.39 338.4-336.51" opacity=".17"/><path d="m654.62 433.91 338.4-336.51" opacity=".16"/><path d="m658.4 434.43 338.4-336.51" opacity=".15"/><path d="m662.18 434.95 338.4-336.51" opacity=".14"/><path d="m665.96 435.48 338.4-336.51" opacity=".14"/><path d="m669.74 436 338.4-336.51" opacity=".13"/><path d="m673.52 436.52 338.4-336.51" opacity=".12"/><path d="m677.3 437.04 338.4-336.51" opacity=".11"/><path d="m681.08 437.56 338.4-336.51" opacity=".1"/><path d="m684.86 438.09 338.41-336.51" opacity=".09"/><path d="m688.64 438.61 338.41-336.51" opacity=".08"/><path d="m692.43 439.13 338.4-336.51" opacity=".07"/><path d="m696.21 439.65 338.4-336.51" opacity=".06"/><path d="m699.99 440.17 338.4-336.51" opacity=".05"/><path d="m703.77 440.69 338.4-336.51" opacity=".05"/><path d="m707.55 441.22 338.4-336.51" opacity=".04"/><path d="m711.33 441.74 338.4-336.51" opacity=".03"/><path d="m715.11 442.26 338.4-336.51" opacity=".02"/><path d="m718.89 442.78 338.4-336.51" opacity=".01"/><path d="m722.67 443.3 338.4-336.51" opacity="0"/></g><path d="m432 255h326v150h-326z" fill="#0b3051" opacity=".4"/></g><path d="m743.32 254a15.67 15.67 0 0 1 15.68 15.65v120.7a15.67 15.67 0 0 1 -15.68 15.65h-296.64a15.67 15.67 0 0 1 -15.68-15.65v-120.7a15.67 15.67 0 0 1 15.68-15.65zm0-10h-296.64a25.69 25.69 0 0 0 -25.68 25.65v120.7a25.69 25.69 0 0 0 25.68 25.65h296.64a25.69 25.69 0 0 0 25.68-25.65v-120.7a25.69 25.69 0 0 0 -25.68-25.65z" fill="#e1e1e1"/><path d="m743.32 254a15.67 15.67 0 0 1 15.68 15.65v120.7a15.67 15.67 0 0 1 -15.68 15.65h-296.64a15.67 15.67 0 0 1 -15.68-15.65v-120.7a15.67 15.67 0 0 1 15.68-15.65zm0-9h-296.64a24.69 24.69 0 0 0 -24.68 24.65v120.7a24.69 24.69 0 0 0 24.68 24.65h296.64a24.69 24.69 0 0 0 24.68-24.65v-120.7a24.69 24.69 0 0 0 -24.68-24.65z" fill="#b3b3b3"/><path d="m741.91 255a16.11 16.11 0 0 1 16.09 16.09v117.82a16.11 16.11 0 0 1 -16.09 16.09h-293.82a16.11 16.11 0 0 1 -16.09-16.09v-117.82a16.11 16.11 0 0 1 16.09-16.09zm0-8h-293.82a24.09 24.09 0 0 0 -24.09 24.09v117.82a24.09 24.09 0 0 0 24.09 24.09h293.82a24.09 24.09 0 0 0 24.09-24.09v-117.82a24.09 24.09 0 0 0 -24.09-24.09z" fill="#0b3051"/><path d="m425 285.19v89.81h7c0-1.2-.2-1.7.64-2.65a3.7 3.7 0 0 1 3.1-1.16 6.88 6.88 0 0 0 2.09-.23 9.16 9.16 0 0 0 3.93-2.43 7.19 7.19 0 0 0 2-3.62 20.63 20.63 0 0 0 .24-4.28v-61a20.64 20.64 0 0 0 -.24-4.28 7.19 7.19 0 0 0 -2-3.62 9.16 9.16 0 0 0 -3.93-2.43 6.89 6.89 0 0 0 -2.09-.23 3.7 3.7 0 0 1 -3.1-1.16c-.84-.95-.64-1.53-.64-2.73z" fill="#0b3051"/><path d="m502 244h40v1h-40z" fill="#b3b3b3"/><path d="m502 243h40v1h-40z" fill="#e1e1e1"/><path d="m11 371.5h2" fill="none" stroke="#fff" stroke-miterlimit="10"/><path d="m14.99 371.5h142.02" fill="none" stroke="#fff" stroke-dasharray="3.97 1.99" stroke-miterlimit="10"/><path d="m158 371.5h2" fill="none" stroke="#fff" stroke-miterlimit="10"/><path d="m155.5 84v317" fill="none" stroke="#fff" stroke-dasharray="4 2" stroke-miterlimit="10"/><path d="m16.5 84v317" fill="none" stroke="#fff" stroke-dasharray="4 2" stroke-miterlimit="10"/><path d="m59.5 401h53" fill="none" stroke="#fff" stroke-linecap="round" stroke-miterlimit="10" stroke-width="2"/><path d="m17 119h30v12h-30z" fill="#5aaef9"/><path d="m17.5 96.5h15v6h-15z" fill="#67b2ec"/><path d="m139.5 96.5h15v6h-15z" fill="#67b2ec"/><path d="m11.5 95.5h149v295h-149z" fill="none" stroke="#fff" stroke-miterlimit="10"/><path d="m448 255h296v14h-296z" fill="#b4d9f5"/><path d="m470.5 379.5v-18.5a2.5 2.5 0 0 1 2.5-2.5h58a2.5 2.5 0 0 1 2.5 2.5v18.5z" fill="#5aaef9"/><path d="m531 359a2 2 0 0 1 2 2v18h-62v-18a2 2 0 0 1 2-2zm0-1h-58a3 3 0 0 0 -3 3v19h64v-19a3 3 0 0 0 -3-3z" fill="#b4d9f5"/><path d="m564.5 379.5v-18.5a2.5 2.5 0 0 1 2.5-2.5h58a2.5 2.5 0 0 1 2.5 2.5v18.5z" fill="#5aaef9"/><path d="m625 359a2 2 0 0 1 2 2v18h-62v-18a2 2 0 0 1 2-2zm0-1h-58a3 3 0 0 0 -3 3v19h64v-19a3 3 0 0 0 -3-3z" fill="#b4d9f5"/><path d="m658.5 379.5v-18.5a2.5 2.5 0 0 1 2.5-2.5h58a2.5 2.5 0 0 1 2.5 2.5v18.5z" fill="#5aaef9"/><path d="m719 359a2 2 0 0 1 2 2v18h-62v-18a2 2 0 0 1 2-2zm0-1h-58a3 3 0 0 0 -3 3v19h64v-19a3 3 0 0 0 -3-3z" fill="#b4d9f5"/><path d="m448 379h296v15h-296z" fill="#b4d9f5"/><path d="m433 378.5h2" fill="none" stroke="#fff" stroke-miterlimit="10"/><path d="m437.01 378.5h318.49" fill="none" stroke="#fff" stroke-dasharray="4.02 2.01" stroke-miterlimit="10"/><path d="m756.5 378.5h2" fill="none" stroke="#fff" stroke-miterlimit="10"/><path d="m433 269.5h2" fill="none" stroke="#fff" stroke-miterlimit="10"/><path d="m437.01 269.5h318.49" fill="none" stroke="#fff" stroke-dasharray="4.02 2.01" stroke-miterlimit="10"/><path d="m756.5 269.5h2" fill="none" stroke="#fff" stroke-miterlimit="10"/><path d="m738.5 255.5v149.5" fill="none" stroke="#fff" stroke-dasharray="4 2" stroke-miterlimit="10"/><path d="m453.5 255.5v149.5" fill="none" stroke="#fff" stroke-dasharray="4 2" stroke-miterlimit="10"/><path d="m449 255h4v150h-4z" fill="#0b3051" opacity=".4"/><path d="m739 255h4v150h-4z" fill="#0b3051" opacity=".4"/><path d="m743 256v137h-294v-137zm1-1h-296v139h296z" fill="#fff"/><path d="m559.5 400h76.5" fill="none" stroke="#fff" stroke-linecap="round" stroke-miterlimit="10" stroke-width="2"/><circle cx="67.67" cy="379" fill="#67b2ec" r="4.5"/><path d="m58.67 386h18v2h-18z" fill="#5aaef9"/><path d="m22 386h18v2h-18z" fill="#5aaef9"/><path d="m31 374.15 1.09 3.35h3.53l-2.86 2.07 1.09 3.36-2.85-2.08-2.85 2.08 1.09-3.36-2.86-2.07h3.53z" fill="#67b2ec"/><path d="m95.33 386h18v2h-18z" fill="#5aaef9"/><path d="m99.97 383.5 4.36-8.86 4.37 8.86z" fill="#67b2ec"/><path d="m132 386h18v2h-18z" fill="#5aaef9"/><path d="m143.6 374.5h-5.2l-2.6 4.5 2.6 4.5h5.2l2.6-4.5z" fill="#67b2ec"/><circle cx="554.18" cy="386" fill="#67b2ec" r="4.5"/><path d="m561.18 386h18v2h-18z" fill="#5aaef9"/><circle cx="338.5" cy="384.5" fill="#67b2ec" r="6"/><path d="m350 384h18v4h-18z" fill="#5aaef9"/><path d="m496 386h18v2h-18z" fill="#5aaef9"/><path d="m486 381.15 1.09 3.35h3.53l-2.86 2.07 1.09 3.36-2.85-2.08-2.85 2.08 1.09-3.36-2.86-2.07h3.53z" fill="#67b2ec"/><path d="m244 384h18v4h-18z" fill="#5aaef9"/><path d="m233.38 378.15 1.42 4.35h4.58l-3.7 2.7 1.41 4.36-3.71-2.7-3.7 2.7 1.41-4.36-3.71-2.7h4.59z" fill="#67b2ec"/><path d="m628.01 386h18v2h-18z" fill="#5aaef9"/><path d="m616.32 390.5 4.36-8.86 4.36 8.86z" fill="#67b2ec"/><path d="m696 386h18v2h-18z" fill="#5aaef9"/><path d="m689.6 381.5h-5.2l-2.6 4.5 2.6 4.5h5.2l2.6-4.5z" fill="#67b2ec"/><path d="m454.5 259.5h15v6h-15z" fill="#67b2ec"/><path d="m722.5 259.5h15v6h-15z" fill="#67b2ec"/><path d="m580 259h30v7h-30z" fill="#5aaef9"/><path d="m19 212h26v6h-26z" fill="#5aaef9"/><rect fill="#5aaef9" height="63" rx="2.5" width="63" x="19.5" y="145.5"/><path d="m80 146a2 2 0 0 1 2 2v58a2 2 0 0 1 -2 2h-58a2 2 0 0 1 -2-2v-58a2 2 0 0 1 2-2zm0-1h-58a3 3 0 0 0 -3 3v58a3 3 0 0 0 3 3h58a3 3 0 0 0 3-3v-58a3 3 0 0 0 -3-3z" fill="#b4d9f5"/><path d="m89 212h26v6h-26z" fill="#5aaef9"/><rect fill="#5aaef9" height="63" rx="2.5" width="63" x="89.5" y="145.5"/><path d="m150 146a2 2 0 0 1 2 2v58a2 2 0 0 1 -2 2h-58a2 2 0 0 1 -2-2v-58a2 2 0 0 1 2-2zm0-1h-58a3 3 0 0 0 -3 3v58a3 3 0 0 0 3 3h58a3 3 0 0 0 3-3v-58a3 3 0 0 0 -3-3z" fill="#b4d9f5"/><path d="m19 294h26v6h-26z" fill="#5aaef9"/><rect fill="#5aaef9" height="63" rx="2.5" width="63" x="19.5" y="227.5"/><path d="m80 228a2 2 0 0 1 2 2v58a2 2 0 0 1 -2 2h-58a2 2 0 0 1 -2-2v-58a2 2 0 0 1 2-2zm0-1h-58a3 3 0 0 0 -3 3v58a3 3 0 0 0 3 3h58a3 3 0 0 0 3-3v-58a3 3 0 0 0 -3-3z" fill="#b4d9f5"/><path d="m89 294h26v6h-26z" fill="#5aaef9"/><rect fill="#5aaef9" height="63" rx="2.5" width="63" x="89.5" y="227.5"/><path d="m150 228a2 2 0 0 1 2 2v58a2 2 0 0 1 -2 2h-58a2 2 0 0 1 -2-2v-58a2 2 0 0 1 2-2zm0-1h-58a3 3 0 0 0 -3 3v58a3 3 0 0 0 3 3h58a3 3 0 0 0 3-3v-58a3 3 0 0 0 -3-3z" fill="#fff"/><path d="m124 209.5h-7" fill="none" stroke="#0b3051" stroke-miterlimit="10"/><path d="m124 226.5h-7" fill="none" stroke="#0b3051" stroke-miterlimit="10"/><path d="m120.5 209v18" fill="none" stroke="#0b3051" stroke-miterlimit="10"/><path d="m83.5 257v7" fill="none" stroke="#0b3051" stroke-miterlimit="10"/><path d="m88.5 257v7" fill="none" stroke="#0b3051" stroke-miterlimit="10"/><path d="m83 260.5h6" fill="none" stroke="#0b3051" stroke-miterlimit="10"/><path d="m12.5 257v7" fill="none" stroke="#0b3051" stroke-miterlimit="10"/><path d="m18.5 257v7" fill="none" stroke="#0b3051" stroke-miterlimit="10"/><path d="m13 260.5h6" fill="none" stroke="#0b3051" stroke-miterlimit="10"/><path d="m470 343h26v6h-26z" fill="#5aaef9"/><rect fill="#5aaef9" height="63" rx="2.5" width="63" x="470.5" y="276.5"/><path d="m531 277a2 2 0 0 1 2 2v58a2 2 0 0 1 -2 2h-58a2 2 0 0 1 -2-2v-58a2 2 0 0 1 2-2zm0-1h-58a3 3 0 0 0 -3 3v58a3 3 0 0 0 3 3h58a3 3 0 0 0 3-3v-58a3 3 0 0 0 -3-3z" fill="#b4d9f5"/><path d="m564 343h26v6h-26z" fill="#5aaef9"/><rect fill="#5aaef9" height="63" rx="2.5" width="63" x="564.5" y="276.5"/><path d="m625 277a2 2 0 0 1 2 2v58a2 2 0 0 1 -2 2h-58a2 2 0 0 1 -2-2v-58a2 2 0 0 1 2-2zm0-1h-58a3 3 0 0 0 -3 3v58a3 3 0 0 0 3 3h58a3 3 0 0 0 3-3v-58a3 3 0 0 0 -3-3z" fill="#b4d9f5"/><path d="m658 343h26v6h-26z" fill="#5aaef9"/><rect fill="#5aaef9" height="63" rx="2.5" width="63" x="658.5" y="276.5"/><path d="m719 277a2 2 0 0 1 2 2v58a2 2 0 0 1 -2 2h-58a2 2 0 0 1 -2-2v-58a2 2 0 0 1 2-2zm0-1h-58a3 3 0 0 0 -3 3v58a3 3 0 0 0 3 3h58a3 3 0 0 0 3-3v-58a3 3 0 0 0 -3-3z" fill="#fff"/><path d="m369 144h32v7h-32z" fill="#5aaef9"/><rect fill="#5aaef9" height="78" rx="2.5" width="78" x="369.5" y="61.5"/><path d="m445 62a2 2 0 0 1 2 2v73a2 2 0 0 1 -2 2h-73a2 2 0 0 1 -2-2v-73a2 2 0 0 1 2-2zm0-1h-73a3 3 0 0 0 -3 3v73a3 3 0 0 0 3 3h73a3 3 0 0 0 3-3v-73a3 3 0 0 0 -3-3z" fill="#fff"/><path d="m462 144h32v7h-32z" fill="#5aaef9"/><rect fill="#5aaef9" height="78" rx="2.5" width="78" x="462.5" y="61.5"/><path d="m538 62a2 2 0 0 1 2 2v73a2 2 0 0 1 -2 2h-73a2 2 0 0 1 -2-2v-73a2 2 0 0 1 2-2zm0-1h-73a3 3 0 0 0 -3 3v73a3 3 0 0 0 3 3h73a3 3 0 0 0 3-3v-73a3 3 0 0 0 -3-3z" fill="#b4d9f5"/><path d="m555 144h32v7h-32z" fill="#5aaef9"/><rect fill="#5aaef9" height="78" rx="2.5" width="78" x="555.5" y="61.5"/><path d="m631 62a2 2 0 0 1 2 2v73a2 2 0 0 1 -2 2h-73a2 2 0 0 1 -2-2v-73a2 2 0 0 1 2-2zm0-1h-73a3 3 0 0 0 -3 3v73a3 3 0 0 0 3 3h73a3 3 0 0 0 3-3v-73a3 3 0 0 0 -3-3z" fill="#b4d9f5"/><path d="m394 37h30v7h-30z" fill="#5aaef9"/><path d="m163.5 37.5h15v6h-15z" fill="#67b2ec"/><path d="m639.5 37.5h15v6h-15z" fill="#67b2ec"/><path d="m183 288h42.86v10h-42.86z" fill="#5aaef9"/><g fill="none"><path d="m355.5 96v7" stroke="#0b3051"/><path d="m368.5 96v7" stroke="#0b3051"/><path d="m355 99.5h14" stroke="#0b3051"/><path d="m262.5 96v7" stroke="#0b3051"/><path d="m275.5 96v7" stroke="#0b3051"/><path d="m262 99.5h14" stroke="#0b3051"/><path d="m412 50.5h-7" stroke="#0b3051"/><path d="m412 60.5h-7" stroke="#0b3051"/><path d="m408.5 50v11" stroke="#0b3051"/><path d="m412 140.5h-7" stroke="#0b3051"/><path d="m412 166.5h-7" stroke="#0b3051"/><path d="m408.5 140v27" stroke="#0b3051"/><path d="m461.5 103v-7" stroke="#0b3051"/><path d="m448.5 103v-7" stroke="#0b3051"/><path d="m461.5 99.5h-13.5" stroke="#0b3051"/><path d="m554.5 103v-7" stroke="#0b3051"/><path d="m541.5 103v-7" stroke="#0b3051"/><path d="m554.5 99.5h-13.5" stroke="#0b3051"/><path d="m659.5 103v-7" stroke="#0b3051"/><path d="m634.5 103v-7" stroke="#0b3051"/><path d="m659.5 99.5h-25.5" stroke="#0b3051"/><path d="m124 139.5h-7" stroke="#0b3051" stroke-miterlimit="10"/><path d="m124 144.5h-7" stroke="#0b3051" stroke-miterlimit="10"/><path d="m120.5 139v6" stroke="#0b3051" stroke-miterlimit="10"/><path d="m693 340.5h-7" stroke="#0b3051" stroke-miterlimit="10"/><path d="m693 357.5h-7" stroke="#0b3051" stroke-miterlimit="10"/><path d="m689.5 340v18" stroke="#0b3051" stroke-miterlimit="10"/><path d="m628.5 308v7" stroke="#0b3051" stroke-miterlimit="10"/><path d="m657.5 308v7" stroke="#0b3051" stroke-miterlimit="10"/><path d="m628 311.5h30" stroke="#0b3051" stroke-miterlimit="10"/><path d="m534.5 308v7" stroke="#0b3051" stroke-miterlimit="10"/><path d="m563.5 308v7" stroke="#0b3051" stroke-miterlimit="10"/><path d="m535 311.5h29" stroke="#0b3051" stroke-miterlimit="10"/><path d="m449.5 308v7" stroke="#0b3051" stroke-miterlimit="10"/><path d="m469.5 308v7" stroke="#0b3051" stroke-miterlimit="10"/><path d="m450 311.5h20" stroke="#0b3051" stroke-miterlimit="10"/><path d="m693 270.5h-7" stroke="#0b3051" stroke-miterlimit="10"/><path d="m693 275.5h-7" stroke="#0b3051" stroke-miterlimit="10"/><path d="m689.5 270v6" stroke="#0b3051" stroke-miterlimit="10"/></g></svg>