<svg height="487" viewBox="0 0 852 487" width="852" xmlns="http://www.w3.org/2000/svg" xmlns:xlink="http://www.w3.org/1999/xlink"><linearGradient id="a"><stop offset="0" stop-color="#0982fe"/><stop offset="1" stop-color="#3ca1d2"/></linearGradient><linearGradient id="b" x1="-2.21372%" x2="121.751979%" xlink:href="#a" y1="50%" y2="50%"/><linearGradient id="c" x1="8600%" x2="8600%" xlink:href="#a" y1="34080%" y2="10636%"/><linearGradient id="d" x1="59500%" x2="59500%" xlink:href="#a" y1="38867%" y2="24466%"/><mask id="e" fill="#fff"><path d="m0 0h149v21h-149z" fill="none"/></mask><mask id="f" fill="#fff"><path d="m.5.5h149v24h-149z" fill="none"/></mask><mask id="g" fill="#fff"><path d="m310.5.5v138h-291v-138h-19v149.38h327v-149.38z" fill="none"/></mask><g fill="none" fill-rule="evenodd" transform="translate(42 37)"><path d="m137 201.58c2.053188.005519 3.713671 1.673456 3.709994 3.726649-.003677 2.053192-1.670123 3.715171-3.723318 3.713336s-3.716669-1.666789-3.716676-3.719985c-.002681-.98916.389761-1.938434 1.090144-2.636939s1.650707-1.088397 2.639856-1.083061z" fill="#8c8c8c" fill-rule="nonzero"/><rect fill="#b3b3b3" fill-rule="nonzero" height="591" rx="20.56" stroke="#b3b3b3" stroke-width="1.2" transform="matrix(0 -1 1 0 202.5 614.5)" width="411" x="203" y="-89.5"/><rect fill="#0b3051" fill-rule="nonzero" height="403.72" rx="19.15" width="582.58" x="117.19" y="4.14"/><path d="m219-46h379v503h-379z" fill="url(#b)" fill-rule="nonzero" transform="matrix(0 -1 1 0 203 614)"/><path d="m158 47.5h2" stroke="#fff"/><path d="m161.99 47.5h495.01" stroke="#fff" stroke-dasharray="3.98"/><path d="m658 47.5h2" stroke="#fff"/><path d="m183 247h32v7h-32z" fill="#5aaef9" fill-rule="nonzero"/><rect fill="#5aaef9" fill-rule="nonzero" height="78" rx="2.5" width="78" x="183.5" y="164.5"/><path d="m259 165c1.104569 0 2 .895431 2 2v73c0 1.104569-.895431 2-2 2h-73c-1.104569 0-2-.895431-2-2v-73c0-1.104569.895431-2 2-2zm0-1h-73c-1.656854 0-3 1.343146-3 3v73c0 1.656854 1.343146 3 3 3h73c1.656854 0 3-1.343146 3-3v-73c0-1.656854-1.343146-3-3-3z" fill="#b4d9f5" fill-rule="nonzero"/><path d="m158 164.5h2" stroke="#fff"/><path d="m161.99 164.5h495.01" stroke="#fff" stroke-dasharray="3.98"/><path d="m658 164.5h2" stroke="#fff"/><path d="m183 141h32v7h-32z" fill="#5aaef9" fill-rule="nonzero"/><rect fill="#5aaef9" fill-rule="nonzero" height="78" rx="2.5" width="78" x="183.5" y="58.5"/><path d="m259 59c1.104569 0 2 .8954305 2 2v73c0 1.104569-.895431 2-2 2h-73c-1.104569 0-2-.895431-2-2v-73c0-1.1045695.895431-2 2-2zm0-1h-73c-1.656854 0-3 1.3431458-3 3v73c0 1.656854 1.343146 3 3 3h73c1.656854 0 3-1.343146 3-3v-73c0-1.6568542-1.343146-3-3-3z" fill="#b4d9f5" fill-rule="nonzero"/><path d="m169.5 93v7" stroke="#0b3051"/><path d="m182.5 93v7" stroke="#0b3051"/><path d="m169 96.5h14" stroke="#0b3051"/><path d="m276 141h32v7h-32z" fill="#5aaef9" fill-rule="nonzero"/><rect fill="#5aaef9" fill-rule="nonzero" height="78" rx="2.5" width="78" x="276.5" y="58.5"/><path d="m352 59c1.104569 0 2 .8954305 2 2v73c0 1.104569-.895431 2-2 2h-73c-1.104569 0-2-.895431-2-2v-73c0-1.1045695.895431-2 2-2zm0-1h-73c-1.656854 0-3 1.3431458-3 3v73c0 1.656854 1.343146 3 3 3h73c1.656854 0 3-1.343146 3-3v-73c0-1.6568542-1.343146-3-3-3z" fill="#b4d9f5" fill-rule="nonzero"/><path d="m183 386h32v7h-32z" fill="#5aaef9" fill-rule="nonzero"/><path d="m183.5 381.5v-75.5c0-1.380712 1.119288-2.5 2.5-2.5h73c1.380712 0 2.5 1.119288 2.5 2.5v75.5z" fill="#5aaef9" fill-rule="nonzero"/><path d="m259 304c1.104569 0 2 .895431 2 2v75h-77v-75c0-1.104569.895431-2 2-2zm0-1h-73c-1.656854 0-3 1.343146-3 3v76h79v-76c0-1.656854-1.343146-3-3-3z" fill="#b4d9f5" fill-rule="nonzero"/><path d="m276 386h32v7h-32z" fill="#5aaef9" fill-rule="nonzero"/><path d="m276.5 381.5v-75.5c0-1.380712 1.119288-2.5 2.5-2.5h73c1.380712 0 2.5 1.119288 2.5 2.5v75.5z" fill="#5aaef9" fill-rule="nonzero"/><path d="m352 304c1.104569 0 2 .895431 2 2v75h-77v-75c0-1.104569.895431-2 2-2zm0-1h-73c-1.656854 0-3 1.343146-3 3v76h79v-76c0-1.656854-1.343146-3-3-3z" fill="#b4d9f5" fill-rule="nonzero"/><path d="m157 370h503v25h-503z" fill="#b4d9f5" fill-rule="nonzero"/><path d="m162 369.5h2" stroke="#fff"/><path d="m166.01 369.5h492.99" stroke="#fff" stroke-dasharray="4.02"/><path d="m660 369.5h2" stroke="#fff"/><path d="m157 16h503v31h-503z" fill="#b4d9f5" fill-rule="nonzero"/><path d="m162.5 16v317" stroke="#fff" stroke-dasharray="4"/><path d="m680 192c-6.899643.011042-12.48551 5.610332-12.479992 12.509981.005518 6.89965 5.600335 12.489998 12.499987 12.490003 6.899651.000005 12.494476-5.590334 12.500005-12.489984.00266-3.320407-1.315873-6.505437-3.664693-8.852381-2.348821-2.346945-5.534904-3.662933-8.855307-3.657619" stroke="#b3b3b3" stroke-width="1.2"/><path d="m655.5 16v317" stroke="#fff" stroke-dasharray="4"/><rect fill="#5aaef9" fill-rule="nonzero" height="12" rx="6" stroke="#fff" width="20" x="714.5" y="316.5"/><circle cx="728.5" cy="322.5" fill="#fff" fill-rule="nonzero" r="4.5"/><path d="m656 14.5h10v321.5h-10z" fill="#0b3051" fill-rule="nonzero" opacity=".4"/><path d="m152 14.5h10v321.5h-10z" fill="#0b3051" fill-rule="nonzero" opacity=".4"/><path d="m157.5 175v9" stroke="#fff"/><path d="m219.5-45.5h379v503h-379z" stroke="#fff" transform="matrix(0 -1 1 0 203 615)"/><path d="m0 112h1.43v13h-1.43z" fill="#b3b3b3" fill-rule="nonzero"/><path d="m0 169h1v25h-1z" fill="#b3b3b3" fill-rule="nonzero"/><path d="m0 137h1v25h-1z" fill="#b3b3b3" fill-rule="nonzero"/><path d="m11 76h150v326h-150z" fill="url(#c)" fill-rule="nonzero"/><path d="m11.5 92.5h149.5v43.5h-149.5z" fill="#b4d9f5" fill-rule="nonzero"/><path d="m161 92.89h-150v-15.89c1-2.78 3.26-5 6-5h144z" fill="#b4d9f5" fill-rule="nonzero"/><g mask="url(#e)" stroke="#fff" transform="translate(11 71)"><g transform="translate(-260 -297)"><path d="m.54 336.89 338.4-336.51"/><path d="m4.32 337.41 338.4-336.51" opacity=".99"/><path d="m8.1 337.93 338.4-336.51" opacity=".98"/><path d="m11.88 338.46 338.4-336.51" opacity=".97"/><path d="m15.66 338.98 338.4-336.51" opacity=".96"/><path d="m19.44 339.5 338.4-336.51" opacity=".95"/><path d="m23.22 340.02 338.4-336.51" opacity=".95"/><path d="m27 340.54 338.4-336.51" opacity=".94"/><path d="m30.78 341.06 338.4-336.51" opacity=".93"/><path d="m34.56 341.59 338.4-336.51" opacity=".92"/><path d="m38.34 342.11 338.4-336.51" opacity=".91"/><path d="m42.12 342.63 338.4-336.51" opacity=".9"/><path d="m45.9 343.15 338.4-336.51" opacity=".89"/><path d="m49.68 343.67 338.4-336.51" opacity=".88"/><path d="m53.46 344.19 338.41-336.51" opacity=".87"/><path d="m57.24 344.72 338.41-336.51" opacity=".86"/><path d="m61.02 345.24 338.41-336.51" opacity=".86"/><path d="m64.81 345.76 338.4-336.51" opacity=".85"/><path d="m68.59 346.28 338.4-336.51" opacity=".84"/><path d="m72.37 346.8 338.4-336.51" opacity=".83"/><path d="m76.15 347.32 338.4-336.5" opacity=".82"/><path d="m79.93 347.85 338.4-336.51" opacity=".81"/><path d="m83.71 348.37 338.4-336.51" opacity=".8"/><path d="m87.49 348.89 338.4-336.51" opacity=".79"/><path d="m91.27 349.41 338.4-336.51" opacity=".78"/><path d="m95.05 349.93 338.4-336.51" opacity=".77"/><path d="m98.83 350.46 338.4-336.51" opacity=".77"/><path d="m102.61 350.98 338.4-336.51" opacity=".76"/><path d="m106.39 351.5 338.4-336.51" opacity=".75"/><path d="m110.17 352.02 338.4-336.51" opacity=".74"/><path d="m113.95 352.54 338.4-336.51" opacity=".73"/><path d="m117.73 353.06 338.4-336.51" opacity=".72"/><path d="m121.51 353.59 338.4-336.51" opacity=".71"/><path d="m125.29 354.11 338.4-336.51" opacity=".7"/><path d="m129.07 354.63 338.4-336.51" opacity=".69"/><path d="m132.85 355.15 338.4-336.51" opacity=".68"/><path d="m136.63 355.67 338.41-336.51" opacity=".68"/><path d="m140.41 356.19 338.41-336.51" opacity=".67"/><path d="m144.2 356.72 338.4-336.51" opacity=".66"/><path d="m147.98 357.24 338.4-336.51" opacity=".65"/><path d="m151.76 357.76 338.4-336.51" opacity=".64"/><path d="m155.54 358.28 338.4-336.51" opacity=".63"/><path d="m159.32 358.8 338.4-336.51" opacity=".62"/><path d="m163.1 359.32 338.4-336.51" opacity=".61"/><path d="m166.88 359.85 338.4-336.51" opacity=".6"/><path d="m170.66 360.37 338.4-336.51" opacity=".59"/><path d="m174.44 360.89 338.4-336.51" opacity=".59"/><path d="m178.22 361.41 338.4-336.51" opacity=".58"/><path d="m182 361.93 338.4-336.51" opacity=".57"/><path d="m185.78 362.46 338.4-336.51" opacity=".56"/><path d="m189.56 362.98 338.4-336.51" opacity=".55"/><path d="m193.34 363.5 338.4-336.51" opacity=".54"/><path d="m197.12 364.02 338.4-336.51" opacity=".53"/><path d="m200.9 364.54 338.4-336.51" opacity=".52"/><path d="m204.68 365.06 338.4-336.51" opacity=".51"/><path d="m208.46 365.59 338.4-336.51" opacity=".5"/><path d="m212.24 366.11 338.4-336.51" opacity=".5"/><path d="m216.02 366.63 338.4-336.51" opacity=".49"/><path d="m219.8 367.15 338.41-336.51" opacity=".48"/><path d="m223.58 367.67 338.41-336.51" opacity=".47"/><path d="m227.37 368.19 338.4-336.51" opacity=".46"/><path d="m231.15 368.72 338.4-336.51" opacity=".45"/><path d="m234.93 369.24 338.4-336.51" opacity=".44"/><path d="m238.71 369.76 338.4-336.51" opacity=".43"/><path d="m242.49 370.28 338.4-336.51" opacity=".42"/><path d="m246.27 370.8 338.4-336.51" opacity=".41"/><path d="m250.05 371.32 338.4-336.51" opacity=".41"/><path d="m253.83 371.85 338.4-336.51" opacity=".4"/><path d="m257.61 372.37 338.4-336.51" opacity=".39"/><path d="m261.39 372.89 338.4-336.51" opacity=".38"/><path d="m265.17 373.41 338.4-336.51" opacity=".37"/><path d="m268.95 373.93 338.4-336.51" opacity=".36"/><path d="m272.73 374.45 338.4-336.5" opacity=".35"/><path d="m276.51 374.98 338.4-336.51" opacity=".34"/><path d="m280.29 375.5 338.4-336.51" opacity=".33"/><path d="m284.07 376.02 338.4-336.51" opacity=".32"/><path d="m287.85 376.54 338.4-336.51" opacity=".32"/><path d="m291.63 377.06 338.4-336.51" opacity=".31"/><path d="m295.41 377.59 338.4-336.51" opacity=".3"/><path d="m299.19 378.11 338.41-336.51" opacity=".29"/><path d="m302.97 378.63 338.41-336.51" opacity=".28"/><path d="m306.75 379.15 338.41-336.51" opacity=".27"/><path d="m310.54 379.67 338.4-336.51" opacity=".26"/><path d="m314.32 380.19 338.4-336.51" opacity=".25"/><path d="m318.1 380.72 338.4-336.51" opacity=".24"/><path d="m321.88 381.24 338.4-336.51" opacity=".23"/><path d="m325.66 381.76 338.4-336.51" opacity=".23"/><path d="m329.44 382.28 338.4-336.51" opacity=".22"/><path d="m333.22 382.8 338.4-336.51" opacity=".21"/><path d="m337 383.32 338.4-336.51" opacity=".2"/><path d="m340.78 383.85 338.4-336.51" opacity=".19"/><path d="m344.56 384.37 338.4-336.51" opacity=".18"/><path d="m348.34 384.89 338.4-336.51" opacity=".17"/><path d="m352.12 385.41 338.4-336.51" opacity=".16"/><path d="m355.9 385.93 338.4-336.51" opacity=".15"/><path d="m359.68 386.45 338.4-336.51" opacity=".14"/><path d="m363.46 386.98 338.4-336.51" opacity=".14"/><path d="m367.24 387.5 338.4-336.51" opacity=".13"/><path d="m371.02 388.02 338.4-336.51" opacity=".12"/><path d="m374.8 388.54 338.4-336.51" opacity=".11"/><path d="m378.58 389.06 338.4-336.51" opacity=".1"/><path d="m382.36 389.59 338.41-336.51" opacity=".09"/><path d="m386.14 390.11 338.41-336.51" opacity=".08"/><path d="m389.93 390.63 338.4-336.51" opacity=".07"/><path d="m393.71 391.15 338.4-336.51" opacity=".06"/><path d="m397.49 391.67 338.4-336.51" opacity=".05"/><path d="m401.27 392.19 338.4-336.51" opacity=".05"/><path d="m405.05 392.72 338.4-336.51" opacity=".04"/><path d="m408.83 393.24 338.4-336.51" opacity=".03"/><path d="m412.61 393.76 338.4-336.51" opacity=".02"/><path d="m416.39 394.28 338.4-336.51" opacity=".01"/><path d="m420.17 394.8 338.4-336.51" opacity="0"/></g></g><path d="m10 378h152v24h-152z" fill="#0b3051" fill-rule="nonzero" opacity=".4"/><path d="m161 401.89h-150v-25.89c1-2.78 3.26-5 6-5h144z" fill="#b4d9f5" fill-rule="nonzero"/><g mask="url(#f)" stroke="#fff" transform="translate(11 378)"><g transform="translate(-140 -266)"><path d="m.04 337.39 338.4-336.51"/><path d="m3.82 337.91 338.4-336.51" opacity=".99"/><path d="m7.6 338.43 338.4-336.51" opacity=".98"/><path d="m11.38 338.96 338.4-336.51" opacity=".97"/><path d="m15.16 339.48 338.4-336.51" opacity=".96"/><path d="m18.94 340 338.4-336.51" opacity=".95"/><path d="m22.72 340.52 338.4-336.51" opacity=".95"/><path d="m26.5 341.04 338.4-336.51" opacity=".94"/><path d="m30.28 341.56 338.4-336.51" opacity=".93"/><path d="m34.06 342.09 338.4-336.51" opacity=".92"/><path d="m37.84 342.61 338.4-336.51" opacity=".91"/><path d="m41.62 343.13 338.4-336.51" opacity=".9"/><path d="m45.4 343.65 338.4-336.51" opacity=".89"/><path d="m49.18 344.17 338.4-336.51" opacity=".88"/><path d="m52.96 344.69 338.41-336.51" opacity=".87"/><path d="m56.74 345.22 338.41-336.51" opacity=".86"/><path d="m60.52 345.74 338.41-336.51" opacity=".86"/><path d="m64.31 346.26 338.4-336.51" opacity=".85"/><path d="m68.09 346.78 338.4-336.51" opacity=".84"/><path d="m71.87 347.3 338.4-336.51" opacity=".83"/><path d="m75.65 347.82 338.4-336.5" opacity=".82"/><path d="m79.43 348.35 338.4-336.51" opacity=".81"/><path d="m83.21 348.87 338.4-336.51" opacity=".8"/><path d="m86.99 349.39 338.4-336.51" opacity=".79"/><path d="m90.77 349.91 338.4-336.51" opacity=".78"/><path d="m94.55 350.43 338.4-336.51" opacity=".77"/><path d="m98.33 350.96 338.4-336.51" opacity=".77"/><path d="m102.11 351.48 338.4-336.51" opacity=".76"/><path d="m105.89 352 338.4-336.51" opacity=".75"/><path d="m109.67 352.52 338.4-336.51" opacity=".74"/><path d="m113.45 353.04 338.4-336.51" opacity=".73"/><path d="m117.23 353.56 338.4-336.51" opacity=".72"/><path d="m121.01 354.09 338.4-336.51" opacity=".71"/><path d="m124.79 354.61 338.4-336.51" opacity=".7"/><path d="m128.57 355.13 338.4-336.51" opacity=".69"/><path d="m132.35 355.65 338.4-336.51" opacity=".68"/><path d="m136.13 356.17 338.41-336.51" opacity=".68"/><path d="m139.91 356.69 338.41-336.51" opacity=".67"/><path d="m143.7 357.22 338.4-336.51" opacity=".66"/><path d="m147.48 357.74 338.4-336.51" opacity=".65"/><path d="m151.26 358.26 338.4-336.51" opacity=".64"/><path d="m155.04 358.78 338.4-336.51" opacity=".63"/><path d="m158.82 359.3 338.4-336.51" opacity=".62"/><path d="m162.6 359.82 338.4-336.51" opacity=".61"/><path d="m166.38 360.35 338.4-336.51" opacity=".6"/><path d="m170.16 360.87 338.4-336.51" opacity=".59"/><path d="m173.94 361.39 338.4-336.51" opacity=".59"/><path d="m177.72 361.91 338.4-336.51" opacity=".58"/><path d="m181.5 362.43 338.4-336.51" opacity=".57"/><path d="m185.28 362.96 338.4-336.51" opacity=".56"/><path d="m189.06 363.48 338.4-336.51" opacity=".55"/><path d="m192.84 364 338.4-336.51" opacity=".54"/><path d="m196.62 364.52 338.4-336.51" opacity=".53"/><path d="m200.4 365.04 338.4-336.51" opacity=".52"/><path d="m204.18 365.56 338.4-336.51" opacity=".51"/><path d="m207.96 366.09 338.4-336.51" opacity=".5"/><path d="m211.74 366.61 338.4-336.51" opacity=".5"/><path d="m215.52 367.13 338.4-336.51" opacity=".49"/><path d="m219.3 367.65 338.41-336.51" opacity=".48"/><path d="m223.08 368.17 338.41-336.51" opacity=".47"/><path d="m226.87 368.69 338.4-336.51" opacity=".46"/><path d="m230.65 369.22 338.4-336.51" opacity=".45"/><path d="m234.43 369.74 338.4-336.51" opacity=".44"/><path d="m238.21 370.26 338.4-336.51" opacity=".43"/><path d="m241.99 370.78 338.4-336.51" opacity=".42"/><path d="m245.77 371.3 338.4-336.51" opacity=".41"/><path d="m249.55 371.82 338.4-336.51" opacity=".41"/><path d="m253.33 372.35 338.4-336.51" opacity=".4"/><path d="m257.11 372.87 338.4-336.51" opacity=".39"/><path d="m260.89 373.39 338.4-336.51" opacity=".38"/><path d="m264.67 373.91 338.4-336.51" opacity=".37"/><path d="m268.45 374.43 338.4-336.51" opacity=".36"/><path d="m272.23 374.95 338.4-336.5" opacity=".35"/><path d="m276.01 375.48 338.4-336.51" opacity=".34"/><path d="m279.79 376 338.4-336.51" opacity=".33"/><path d="m283.57 376.52 338.4-336.51" opacity=".32"/><path d="m287.35 377.04 338.4-336.51" opacity=".32"/><path d="m291.13 377.56 338.4-336.51" opacity=".31"/><path d="m294.91 378.09 338.4-336.51" opacity=".3"/><path d="m298.69 378.61 338.41-336.51" opacity=".29"/><path d="m302.47 379.13 338.41-336.51" opacity=".28"/><path d="m306.25 379.65 338.41-336.51" opacity=".27"/><path d="m310.04 380.17 338.4-336.51" opacity=".26"/><path d="m313.82 380.69 338.4-336.51" opacity=".25"/><path d="m317.6 381.22 338.4-336.51" opacity=".24"/><path d="m321.38 381.74 338.4-336.51" opacity=".23"/><path d="m325.16 382.26 338.4-336.51" opacity=".23"/><path d="m328.94 382.78 338.4-336.51" opacity=".22"/><path d="m332.72 383.3 338.4-336.51" opacity=".21"/><path d="m336.5 383.82 338.4-336.51" opacity=".2"/><path d="m340.28 384.35 338.4-336.51" opacity=".19"/><path d="m344.06 384.87 338.4-336.51" opacity=".18"/><path d="m347.84 385.39 338.4-336.51" opacity=".17"/><path d="m351.62 385.91 338.4-336.51" opacity=".16"/><path d="m355.4 386.43 338.4-336.51" opacity=".15"/><path d="m359.18 386.95 338.4-336.51" opacity=".14"/><path d="m362.96 387.48 338.4-336.51" opacity=".14"/><path d="m366.74 388 338.4-336.51" opacity=".13"/><path d="m370.52 388.52 338.4-336.51" opacity=".12"/><path d="m374.3 389.04 338.4-336.51" opacity=".11"/><path d="m378.08 389.56 338.4-336.51" opacity=".1"/><path d="m381.86 390.09 338.41-336.51" opacity=".09"/><path d="m385.64 390.61 338.41-336.51" opacity=".08"/><path d="m389.43 391.13 338.4-336.51" opacity=".07"/><path d="m393.21 391.65 338.4-336.51" opacity=".06"/><path d="m396.99 392.17 338.4-336.51" opacity=".05"/><path d="m400.77 392.69 338.4-336.51" opacity=".05"/><path d="m404.55 393.22 338.4-336.51" opacity=".04"/><path d="m408.33 393.74 338.4-336.51" opacity=".03"/><path d="m412.11 394.26 338.4-336.51" opacity=".02"/><path d="m415.89 394.78 338.4-336.51" opacity=".01"/><path d="m419.67 395.3 338.4-336.51" opacity="0"/></g></g><path d="m19.5 369.5v-60.5c0-1.380712 1.1192881-2.5 2.5-2.5h58c1.3807119 0 2.5 1.119288 2.5 2.5v60.5z" fill="#5aaef9" fill-rule="nonzero"/><path d="m80 307c1.1045695 0 2 .895431 2 2v60h-62v-60c0-1.104569.8954305-2 2-2zm0-1h-58c-1.6568542 0-3 1.343146-3 3v61h64v-61c0-1.656854-1.3431458-3-3-3z" fill="#b4d9f5" fill-rule="nonzero"/><path d="m89.5 369.5v-60.5c0-1.380712 1.1192881-2.5 2.5-2.5h58c1.380712 0 2.5 1.119288 2.5 2.5v60.5z" fill="#5aaef9" fill-rule="nonzero"/><path d="m150 307c1.104569 0 2 .895431 2 2v60h-62v-60c0-1.104569.8954305-2 2-2zm0-1h-58c-1.6568542 0-3 1.343146-3 3v61h64v-61c0-1.656854-1.343146-3-3-3z" fill="#b4d9f5" fill-rule="nonzero"/><path d="m11.04 369h149.96v19h-150z" fill="#b4d9f5" fill-rule="nonzero"/><path d="m146.35 75c8.650396.011039 15.655527 7.0295985 15.65 15.68v296.64c.005527 8.650402-6.999604 15.668961-15.65 15.68h-120.7c-8.6503962-.011039-15.6555274-7.029598-15.65-15.68v-296.64c-.0055274-8.6504015 6.9996038-15.668961 15.65-15.68zm0-10h-120.7c-14.1686687.0220599-25.64450192 11.5113152-25.65 25.68v296.64c.00549808 14.168685 11.4813313 25.65794 25.65 25.68h120.7c14.168669-.02206 25.644502-11.511315 25.65-25.68v-296.64c-.005498-14.1686848-11.481331-25.6579401-25.65-25.68z" fill="#e1e1e1" fill-rule="nonzero"/><path d="m146.35 75c8.650396.011039 15.655527 7.0295985 15.65 15.68v296.64c.005527 8.650402-6.999604 15.668961-15.65 15.68h-120.7c-8.6503962-.011039-15.6555274-7.029598-15.65-15.68v-296.64c-.0055274-8.6504015 6.9996038-15.668961 15.65-15.68zm0-9h-120.7c-13.6163839.0220587-24.64450292 11.0635993-24.65 24.68v296.64c.00549708 13.616401 11.0336161 24.657941 24.65 24.68h120.7c13.616384-.022059 24.644503-11.063599 24.65-24.68v-296.64c-.005497-13.6164007-11.033616-24.6579413-24.65-24.68z" fill="#b3b3b3" fill-rule="nonzero"/><path d="m10 76.5h6v321.5h-6z" fill="#0b3051" fill-rule="nonzero" opacity=".4"/><path d="m156 77h6v322h-6z" fill="#0b3051" fill-rule="nonzero" opacity=".4"/><path d="m11 76h150v17h-150z" fill="#0b3051" fill-rule="nonzero" opacity=".4"/><path d="m11 388h150v14h-150z" fill="#0b3051" fill-rule="nonzero" opacity=".4"/><path d="m144.91 76c8.881693.0110195 16.078981 7.2083068 16.09 16.09v293.82c-.011019 8.881693-7.208307 16.078981-16.09 16.09h-117.82c-8.8816932-.011019-16.0789805-7.208307-16.09-16.09v-293.82c.0110195-8.8816932 7.2083068-16.0789805 16.09-16.09zm0-8h-117.82c-13.3045396 0-24.09 10.7854604-24.09 24.09v293.82c0 13.30454 10.7854604 24.09 24.09 24.09h117.82c13.30454 0 24.09-10.78546 24.09-24.09v-293.82c0-13.3045396-10.78546-24.09-24.09-24.09z" fill="#0b3051" fill-rule="nonzero"/><path d="m130.81 69h-89.81v7c1.2 0 1.7-.2 2.65.64.853074.7931337 1.2828529 1.9416807 1.16 3.1-.0439172.7022837.0201614 1.4071486.19 2.09.4608611 1.4961276 1.2974778 2.8491743 2.43 3.93.9847514 1.006811 2.2435007 1.7022527 3.62 2 1.4144616.2284092 2.84887.3088433 4.28.24h61c1.43113.0687707 2.865531-.011663 4.28-.24 1.376499-.2977473 2.635249-.993189 3.62-2 1.132522-1.0808257 1.969139-2.4338724 2.43-3.93.183142-.6807967.260712-1.3856691.23-2.09-.122853-1.1583193.306926-2.3068663 1.16-3.1.95-.84 1.53-.64 2.73-.64z" fill="#0b3051" fill-rule="nonzero"/><path d="m171 146h1v40h-1z" fill="#b3b3b3" fill-rule="nonzero"/><path d="m172 146h1v40h-1z" fill="#e1e1e1" fill-rule="nonzero"/><path d="m160.5 221v-5" stroke="#fff"/><rect height="17" rx="2" stroke="#67b2ec" width="17" x="664.5" y="266.5"/><path d="m432 252h326v150h-326z" fill="url(#d)" fill-rule="nonzero"/><g mask="url(#g)" transform="translate(431 252)"><g transform="translate(-128 -207)"><path d="m122 199h334v162h-334z" fill="#b4d9f5" fill-rule="nonzero"/><g fill="none" fill-rule="evenodd" stroke="#fff"><path d="m.04 337.39 338.4-336.51"/><path d="m3.82 337.91 338.4-336.51" opacity=".99"/><path d="m7.6 338.43 338.4-336.51" opacity=".98"/><path d="m11.38 338.96 338.4-336.51" opacity=".97"/><path d="m15.16 339.48 338.4-336.51" opacity=".96"/><path d="m18.94 340 338.4-336.51" opacity=".95"/><path d="m22.72 340.52 338.4-336.51" opacity=".95"/><path d="m26.5 341.04 338.4-336.51" opacity=".94"/><path d="m30.28 341.56 338.4-336.51" opacity=".93"/><path d="m34.06 342.09 338.4-336.51" opacity=".92"/><path d="m37.84 342.61 338.4-336.51" opacity=".91"/><path d="m41.62 343.13 338.4-336.51" opacity=".9"/><path d="m45.4 343.65 338.4-336.51" opacity=".89"/><path d="m49.18 344.17 338.4-336.51" opacity=".88"/><path d="m52.96 344.69 338.41-336.51" opacity=".87"/><path d="m56.74 345.22 338.41-336.51" opacity=".86"/><path d="m60.52 345.74 338.41-336.51" opacity=".86"/><path d="m64.31 346.26 338.4-336.51" opacity=".85"/><path d="m68.09 346.78 338.4-336.51" opacity=".84"/><path d="m71.87 347.3 338.4-336.51" opacity=".83"/><path d="m75.65 347.82 338.4-336.5" opacity=".82"/><path d="m79.43 348.35 338.4-336.51" opacity=".81"/><path d="m83.21 348.87 338.4-336.51" opacity=".8"/><path d="m86.99 349.39 338.4-336.51" opacity=".79"/><path d="m90.77 349.91 338.4-336.51" opacity=".78"/><path d="m94.55 350.43 338.4-336.51" opacity=".77"/><path d="m98.33 350.96 338.4-336.51" opacity=".77"/><path d="m102.11 351.48 338.4-336.51" opacity=".76"/><path d="m105.89 352 338.4-336.51" opacity=".75"/><path d="m109.67 352.52 338.4-336.51" opacity=".74"/><path d="m113.45 353.04 338.4-336.51" opacity=".73"/><path d="m117.23 353.56 338.4-336.51" opacity=".72"/><path d="m121.01 354.09 338.4-336.51" opacity=".71"/><path d="m124.79 354.61 338.4-336.51" opacity=".7"/><path d="m128.57 355.13 338.4-336.51" opacity=".69"/><path d="m132.35 355.65 338.4-336.51" opacity=".68"/><path d="m136.13 356.17 338.41-336.51" opacity=".68"/><path d="m139.91 356.69 338.41-336.51" opacity=".67"/><path d="m143.7 357.22 338.4-336.51" opacity=".66"/><path d="m147.48 357.74 338.4-336.51" opacity=".65"/><path d="m151.26 358.26 338.4-336.51" opacity=".64"/><path d="m155.04 358.78 338.4-336.51" opacity=".63"/><path d="m158.82 359.3 338.4-336.51" opacity=".62"/><path d="m162.6 359.82 338.4-336.51" opacity=".61"/><path d="m166.38 360.35 338.4-336.51" opacity=".6"/><path d="m170.16 360.87 338.4-336.51" opacity=".59"/><path d="m173.94 361.39 338.4-336.51" opacity=".59"/><path d="m177.72 361.91 338.4-336.51" opacity=".58"/><path d="m181.5 362.43 338.4-336.51" opacity=".57"/><path d="m185.28 362.96 338.4-336.51" opacity=".56"/><path d="m189.06 363.48 338.4-336.51" opacity=".55"/><path d="m192.84 364 338.4-336.51" opacity=".54"/><path d="m196.62 364.52 338.4-336.51" opacity=".53"/><path d="m200.4 365.04 338.4-336.51" opacity=".52"/><path d="m204.18 365.56 338.4-336.51" opacity=".51"/><path d="m207.96 366.09 338.4-336.51" opacity=".5"/><path d="m211.74 366.61 338.4-336.51" opacity=".5"/><path d="m215.52 367.13 338.4-336.51" opacity=".49"/><path d="m219.3 367.65 338.41-336.51" opacity=".48"/><path d="m223.08 368.17 338.41-336.51" opacity=".47"/><path d="m226.87 368.69 338.4-336.51" opacity=".46"/><path d="m230.65 369.22 338.4-336.51" opacity=".45"/><path d="m234.43 369.74 338.4-336.51" opacity=".44"/><path d="m238.21 370.26 338.4-336.51" opacity=".43"/><path d="m241.99 370.78 338.4-336.51" opacity=".42"/><path d="m245.77 371.3 338.4-336.51" opacity=".41"/><path d="m249.55 371.82 338.4-336.51" opacity=".41"/><path d="m253.33 372.35 338.4-336.51" opacity=".4"/><path d="m257.11 372.87 338.4-336.51" opacity=".39"/><path d="m260.89 373.39 338.4-336.51" opacity=".38"/><path d="m264.67 373.91 338.4-336.51" opacity=".37"/><path d="m268.45 374.43 338.4-336.51" opacity=".36"/><path d="m272.23 374.95 338.4-336.5" opacity=".35"/><path d="m276.01 375.48 338.4-336.51" opacity=".34"/><path d="m279.79 376 338.4-336.51" opacity=".33"/><path d="m283.57 376.52 338.4-336.51" opacity=".32"/><path d="m287.35 377.04 338.4-336.51" opacity=".32"/><path d="m291.13 377.56 338.4-336.51" opacity=".31"/><path d="m294.91 378.09 338.4-336.51" opacity=".3"/><path d="m298.69 378.61 338.41-336.51" opacity=".29"/><path d="m302.47 379.13 338.41-336.51" opacity=".28"/><path d="m306.25 379.65 338.41-336.51" opacity=".27"/><path d="m310.04 380.17 338.4-336.51" opacity=".26"/><path d="m313.82 380.69 338.4-336.51" opacity=".25"/><path d="m317.6 381.22 338.4-336.51" opacity=".24"/><path d="m321.38 381.74 338.4-336.51" opacity=".23"/><path d="m325.16 382.26 338.4-336.51" opacity=".23"/><path d="m328.94 382.78 338.4-336.51" opacity=".22"/><path d="m332.72 383.3 338.4-336.51" opacity=".21"/><path d="m336.5 383.82 338.4-336.51" opacity=".2"/><path d="m340.28 384.35 338.4-336.51" opacity=".19"/><path d="m344.06 384.87 338.4-336.51" opacity=".18"/><path d="m347.84 385.39 338.4-336.51" opacity=".17"/><path d="m351.62 385.91 338.4-336.51" opacity=".16"/><path d="m355.4 386.43 338.4-336.51" opacity=".15"/><path d="m359.18 386.95 338.4-336.51" opacity=".14"/><path d="m362.96 387.48 338.4-336.51" opacity=".14"/><path d="m366.74 388 338.4-336.51" opacity=".13"/><path d="m370.52 388.52 338.4-336.51" opacity=".12"/><path d="m374.3 389.04 338.4-336.51" opacity=".11"/><path d="m378.08 389.56 338.4-336.51" opacity=".1"/><path d="m381.86 390.09 338.41-336.51" opacity=".09"/><path d="m385.64 390.61 338.41-336.51" opacity=".08"/><path d="m389.43 391.13 338.4-336.51" opacity=".07"/><path d="m393.21 391.65 338.4-336.51" opacity=".06"/><path d="m396.99 392.17 338.4-336.51" opacity=".05"/><path d="m400.77 392.69 338.4-336.51" opacity=".05"/><path d="m404.55 393.22 338.4-336.51" opacity=".04"/><path d="m408.33 393.74 338.4-336.51" opacity=".03"/><path d="m412.11 394.26 338.4-336.51" opacity=".02"/><path d="m415.89 394.78 338.4-336.51" opacity=".01"/><path d="m419.67 395.3 338.4-336.51" opacity="0"/></g><path d="m129 207h326v150h-326z" fill="#0b3051" fill-rule="nonzero" opacity=".4"/></g></g><path d="m743.32 251c8.650402-.005527 15.668961 6.999604 15.68 15.65v120.7c-.011039 8.650396-7.029598 15.655527-15.68 15.65h-296.64c-8.650402.005527-15.668961-6.999604-15.68-15.65v-120.7c.011039-8.650396 7.029598-15.655527 15.68-15.65zm0-10h-296.64c-14.168685.005498-25.65794 11.481331-25.68 25.65v120.7c.02206 14.168669 11.511315 25.644502 25.68 25.65h296.64c14.168685-.005498 25.65794-11.481331 25.68-25.65v-120.7c-.02206-14.168669-11.511315-25.644502-25.68-25.65z" fill="#e1e1e1" fill-rule="nonzero"/><path d="m743.32 251c8.650402-.005527 15.668961 6.999604 15.68 15.65v120.7c-.011039 8.650396-7.029598 15.655527-15.68 15.65h-296.64c-8.650402.005527-15.668961-6.999604-15.68-15.65v-120.7c.011039-8.650396 7.029598-15.655527 15.68-15.65zm0-9h-296.64c-13.616401.005497-24.657941 11.033616-24.68 24.65v120.7c.022059 13.616384 11.063599 24.644503 24.68 24.65h296.64c13.616401-.005497 24.657941-11.033616 24.68-24.65v-120.7c-.022059-13.616384-11.063599-24.644503-24.68-24.65z" fill="#b3b3b3" fill-rule="nonzero"/><path d="m741.91 252c8.881693.011019 16.078981 7.208307 16.09 16.09v117.82c-.011019 8.881693-7.208307 16.078981-16.09 16.09h-293.82c-8.881693-.011019-16.078981-7.208307-16.09-16.09v-117.82c.011019-8.881693 7.208307-16.078981 16.09-16.09zm0-8h-293.82c-13.30454 0-24.09 10.78546-24.09 24.09v117.82c0 13.30454 10.78546 24.09 24.09 24.09h293.82c13.30454 0 24.09-10.78546 24.09-24.09v-117.82c0-13.30454-10.78546-24.09-24.09-24.09z" fill="#0b3051" fill-rule="nonzero"/><path d="m425 282.19v89.81h7c0-1.2-.2-1.7.64-2.65.793134-.853074 1.941681-1.282853 3.1-1.16.704336.03087 1.409233-.046702 2.09-.23 1.496128-.460861 2.849174-1.297478 3.93-2.43 1.006811-.984751 1.702253-2.243501 2-3.62.228409-1.414462.308843-2.84887.24-4.28v-61c.068771-1.43113-.011663-2.865531-.24-4.28-.297747-1.376499-.993189-2.635249-2-3.62-1.080826-1.132522-2.433872-1.969139-3.93-2.43-.680797-.183142-1.385669-.260712-2.09-.23-1.158319.122853-2.306866-.306926-3.1-1.16-.84-.95-.64-1.53-.64-2.73z" fill="#0b3051" fill-rule="nonzero"/><path d="m502 241h40v1h-40z" fill="#b3b3b3" fill-rule="nonzero"/><path d="m502 240h40v1h-40z" fill="#e1e1e1" fill-rule="nonzero"/><path d="m11 368.5h2" stroke="#fff"/><path d="m14.99 368.5h142.02" stroke="#fff" stroke-dasharray="3.97"/><path d="m158 368.5h2" stroke="#fff"/><path d="m155.5 81v317" stroke="#fff" stroke-dasharray="4"/><path d="m16.5 81v317" stroke="#fff" stroke-dasharray="4"/><path d="m59.5 398h53" stroke="#fff" stroke-linecap="round" stroke-width="2"/><path d="m17 116h30v12h-30z" fill="#5aaef9" fill-rule="nonzero"/><path d="m17.5 93.5h15v6h-15z" fill="#67b2ec" fill-rule="nonzero"/><path d="m139.5 93.5h15v6h-15z" fill="#67b2ec" fill-rule="nonzero"/><path d="m11.5 92.5h149v295h-149z" stroke="#fff"/><path d="m448 252h296v14h-296z" fill="#b4d9f5" fill-rule="nonzero"/><path d="m470.5 376.5v-18.5c0-1.380712 1.119288-2.5 2.5-2.5h58c1.380712 0 2.5 1.119288 2.5 2.5v18.5z" fill="#5aaef9" fill-rule="nonzero"/><path d="m531 356c1.104569 0 2 .895431 2 2v18h-62v-18c0-1.104569.895431-2 2-2zm0-1h-58c-1.656854 0-3 1.343146-3 3v19h64v-19c0-1.656854-1.343146-3-3-3z" fill="#b4d9f5" fill-rule="nonzero"/><path d="m564.5 376.5v-18.5c0-1.380712 1.119288-2.5 2.5-2.5h58c1.380712 0 2.5 1.119288 2.5 2.5v18.5z" fill="#5aaef9" fill-rule="nonzero"/><path d="m625 356c1.104569 0 2 .895431 2 2v18h-62v-18c0-1.104569.895431-2 2-2zm0-1h-58c-1.656854 0-3 1.343146-3 3v19h64v-19c0-1.656854-1.343146-3-3-3z" fill="#b4d9f5" fill-rule="nonzero"/><path d="m658.5 376.5v-18.5c0-1.380712 1.119288-2.5 2.5-2.5h58c1.380712 0 2.5 1.119288 2.5 2.5v18.5z" fill="#5aaef9" fill-rule="nonzero"/><path d="m719 356c1.104569 0 2 .895431 2 2v18h-62v-18c0-1.104569.895431-2 2-2zm0-1h-58c-1.656854 0-3 1.343146-3 3v19h64v-19c0-1.656854-1.343146-3-3-3z" fill="#b4d9f5" fill-rule="nonzero"/><path d="m448 376h296v15h-296z" fill="#b4d9f5" fill-rule="nonzero"/><path d="m433 375.5h2" stroke="#fff"/><path d="m437.01 375.5h318.49" stroke="#fff" stroke-dasharray="4.02"/><path d="m756.5 375.5h2" stroke="#fff"/><path d="m433 266.5h2" stroke="#fff"/><path d="m437.01 266.5h318.49" stroke="#fff" stroke-dasharray="4.02"/><path d="m756.5 266.5h2" stroke="#fff"/><path d="m738.5 252.5v149.5" stroke="#fff" stroke-dasharray="4"/><path d="m453.5 252.5v149.5" stroke="#fff" stroke-dasharray="4"/><path d="m449 252h4v150h-4z" fill="#0b3051" fill-rule="nonzero" opacity=".4"/><path d="m739 252h4v150h-4z" fill="#0b3051" fill-rule="nonzero" opacity=".4"/><path d="m743 253v137h-294v-137zm1-1h-296v139h296z" fill="#fff" fill-rule="nonzero"/><path d="m559.5 397h76.5" stroke="#fff" stroke-linecap="round" stroke-width="2"/><g fill-rule="nonzero"><circle cx="67.67" cy="376" fill="#67b2ec" r="4.5"/><path d="m58.67 383h18v2h-18z" fill="#5aaef9"/><path d="m22 383h18v2h-18z" fill="#5aaef9"/><path d="m31 371.15 1.09 3.35h3.53l-2.86 2.07 1.09 3.36-2.85-2.08-2.85 2.08 1.09-3.36-2.86-2.07h3.53z" fill="#67b2ec"/><path d="m95.33 383h18v2h-18z" fill="#5aaef9"/><path d="m99.97 380.5 4.36-8.86 4.37 8.86z" fill="#67b2ec"/><path d="m132 383h18v2h-18z" fill="#5aaef9"/><path d="m143.6 371.5h-5.2l-2.6 4.5 2.6 4.5h5.2l2.6-4.5z" fill="#67b2ec"/><circle cx="554.18" cy="383" fill="#67b2ec" r="4.5"/><path d="m561.18 383h18v2h-18z" fill="#5aaef9"/><circle cx="338.5" cy="381.5" fill="#67b2ec" r="6"/><path d="m350 381h18v4h-18z" fill="#5aaef9"/><path d="m496 383h18v2h-18z" fill="#5aaef9"/><path d="m486 378.15 1.09 3.35h3.53l-2.86 2.07 1.09 3.36-2.85-2.08-2.85 2.08 1.09-3.36-2.86-2.07h3.53z" fill="#67b2ec"/><path d="m244 381h18v4h-18z" fill="#5aaef9"/><path d="m233.38 375.15 1.42 4.35h4.58l-3.7 2.7 1.41 4.36-3.71-2.7-3.7 2.7 1.41-4.36-3.71-2.7h4.59z" fill="#67b2ec"/><path d="m628.01 383h18v2h-18z" fill="#5aaef9"/><path d="m616.32 387.5 4.36-8.86 4.36 8.86z" fill="#67b2ec"/><path d="m696 383h18v2h-18z" fill="#5aaef9"/><path d="m689.6 378.5h-5.2l-2.6 4.5 2.6 4.5h5.2l2.6-4.5z" fill="#67b2ec"/><path d="m454.5 256.5h15v6h-15z" fill="#67b2ec"/><path d="m722.5 256.5h15v6h-15z" fill="#67b2ec"/><path d="m580 256h30v7h-30z" fill="#5aaef9"/><path d="m19 209h26v6h-26z" fill="#5aaef9"/><rect fill="#5aaef9" height="63" rx="2.5" width="63" x="19.5" y="142.5"/><path d="m80 143c1.1045695 0 2 .895431 2 2v58c0 1.104569-.8954305 2-2 2h-58c-1.1045695 0-2-.895431-2-2v-58c0-1.104569.8954305-2 2-2zm0-1h-58c-1.6568542 0-3 1.343146-3 3v58c0 1.656854 1.3431458 3 3 3h58c1.6568542 0 3-1.343146 3-3v-58c0-1.656854-1.3431458-3-3-3z" fill="#b4d9f5"/><path d="m89 209h26v6h-26z" fill="#5aaef9"/><rect fill="#5aaef9" height="63" rx="2.5" width="63" x="89.5" y="142.5"/><path d="m150 143c1.104569 0 2 .895431 2 2v58c0 1.104569-.895431 2-2 2h-58c-1.1045695 0-2-.895431-2-2v-58c0-1.104569.8954305-2 2-2zm0-1h-58c-1.6568542 0-3 1.343146-3 3v58c0 1.656854 1.3431458 3 3 3h58c1.656854 0 3-1.343146 3-3v-58c0-1.656854-1.343146-3-3-3z" fill="#b4d9f5"/><path d="m19 291h26v6h-26z" fill="#5aaef9"/><rect fill="#5aaef9" height="63" rx="2.5" width="63" x="19.5" y="224.5"/><path d="m80 225c1.1045695 0 2 .895431 2 2v58c0 1.104569-.8954305 2-2 2h-58c-1.1045695 0-2-.895431-2-2v-58c0-1.104569.8954305-2 2-2zm0-1h-58c-1.6568542 0-3 1.343146-3 3v58c0 1.656854 1.3431458 3 3 3h58c1.6568542 0 3-1.343146 3-3v-58c0-1.656854-1.3431458-3-3-3z" fill="#b4d9f5"/><path d="m89 291h26v6h-26z" fill="#5aaef9"/><rect fill="#5aaef9" height="63" rx="2.5" width="63" x="89.5" y="224.5"/><path d="m150 225c1.104569 0 2 .895431 2 2v58c0 1.104569-.895431 2-2 2h-58c-1.1045695 0-2-.895431-2-2v-58c0-1.104569.8954305-2 2-2zm0-1h-58c-1.6568542 0-3 1.343146-3 3v58c0 1.656854 1.3431458 3 3 3h58c1.656854 0 3-1.343146 3-3v-58c0-1.656854-1.343146-3-3-3z" fill="#fff"/></g><path d="m124 206.5h-7" stroke="#0b3051"/><path d="m124 223.5h-7" stroke="#0b3051"/><path d="m120.5 206v18" stroke="#0b3051"/><path d="m83.5 254v7" stroke="#0b3051"/><path d="m88.5 254v7" stroke="#0b3051"/><path d="m83 257.5h6" stroke="#0b3051"/><path d="m12.5 254v7" stroke="#0b3051"/><path d="m18.5 254v7" stroke="#0b3051"/><path d="m13 257.5h6" stroke="#0b3051"/><path d="m470 340h26v6h-26z" fill="#5aaef9" fill-rule="nonzero"/><rect fill="#5aaef9" fill-rule="nonzero" height="63" rx="2.5" width="63" x="470.5" y="273.5"/><path d="m531 274c1.104569 0 2 .895431 2 2v58c0 1.104569-.895431 2-2 2h-58c-1.104569 0-2-.895431-2-2v-58c0-1.104569.895431-2 2-2zm0-1h-58c-1.656854 0-3 1.343146-3 3v58c0 1.656854 1.343146 3 3 3h58c1.656854 0 3-1.343146 3-3v-58c0-1.656854-1.343146-3-3-3z" fill="#b4d9f5" fill-rule="nonzero"/><path d="m564 340h26v6h-26z" fill="#5aaef9" fill-rule="nonzero"/><rect fill="#5aaef9" fill-rule="nonzero" height="63" rx="2.5" width="63" x="564.5" y="273.5"/><path d="m625 274c1.104569 0 2 .895431 2 2v58c0 1.104569-.895431 2-2 2h-58c-1.104569 0-2-.895431-2-2v-58c0-1.104569.895431-2 2-2zm0-1h-58c-1.656854 0-3 1.343146-3 3v58c0 1.656854 1.343146 3 3 3h58c1.656854 0 3-1.343146 3-3v-58c0-1.656854-1.343146-3-3-3z" fill="#b4d9f5" fill-rule="nonzero"/><path d="m658 340h26v6h-26z" fill="#5aaef9" fill-rule="nonzero"/><rect fill="#5aaef9" fill-rule="nonzero" height="63" rx="2.5" width="63" x="658.5" y="273.5"/><path d="m719 274c1.104569 0 2 .895431 2 2v58c0 1.104569-.895431 2-2 2h-58c-1.104569 0-2-.895431-2-2v-58c0-1.104569.895431-2 2-2zm0-1h-58c-1.656854 0-3 1.343146-3 3v58c0 1.656854 1.343146 3 3 3h58c1.656854 0 3-1.343146 3-3v-58c0-1.656854-1.343146-3-3-3z" fill="#fff" fill-rule="nonzero"/><path d="m369 141h32v7h-32z" fill="#5aaef9" fill-rule="nonzero"/><rect fill="#5aaef9" fill-rule="nonzero" height="78" rx="2.5" width="78" x="369.5" y="58.5"/><path d="m445 59c1.104569 0 2 .8954305 2 2v73c0 1.104569-.895431 2-2 2h-73c-1.104569 0-2-.895431-2-2v-73c0-1.1045695.895431-2 2-2zm0-1h-73c-1.656854 0-3 1.3431458-3 3v73c0 1.656854 1.343146 3 3 3h73c1.656854 0 3-1.343146 3-3v-73c0-1.6568542-1.343146-3-3-3z" fill="#fff" fill-rule="nonzero"/><path d="m462 141h32v7h-32z" fill="#5aaef9" fill-rule="nonzero"/><rect fill="#5aaef9" fill-rule="nonzero" height="78" rx="2.5" width="78" x="462.5" y="58.5"/><path d="m538 59c1.104569 0 2 .8954305 2 2v73c0 1.104569-.895431 2-2 2h-73c-1.104569 0-2-.895431-2-2v-73c0-1.1045695.895431-2 2-2zm0-1h-73c-1.656854 0-3 1.3431458-3 3v73c0 1.656854 1.343146 3 3 3h73c1.656854 0 3-1.343146 3-3v-73c0-1.6568542-1.343146-3-3-3z" fill="#b4d9f5" fill-rule="nonzero"/><path d="m555 141h32v7h-32z" fill="#5aaef9" fill-rule="nonzero"/><rect fill="#5aaef9" fill-rule="nonzero" height="78" rx="2.5" width="78" x="555.5" y="58.5"/><path d="m631 59c1.104569 0 2 .8954305 2 2v73c0 1.104569-.895431 2-2 2h-73c-1.104569 0-2-.895431-2-2v-73c0-1.1045695.895431-2 2-2zm0-1h-73c-1.656854 0-3 1.3431458-3 3v73c0 1.656854 1.343146 3 3 3h73c1.656854 0 3-1.343146 3-3v-73c0-1.6568542-1.343146-3-3-3z" fill="#b4d9f5" fill-rule="nonzero"/><path d="m394 34h30v7h-30z" fill="#5aaef9" fill-rule="nonzero"/><path d="m163.5 34.5h15v6h-15z" fill="#67b2ec" fill-rule="nonzero"/><path d="m639.5 34.5h15v6h-15z" fill="#67b2ec" fill-rule="nonzero"/><path d="m183 285h42.86v10h-42.86z" fill="#5aaef9" fill-rule="nonzero"/><g stroke="#0b3051" transform="translate(117 47)"><path d="m238.5 46v7"/><path d="m251.5 46v7"/><path d="m238 49.5h14"/><path d="m145.5 46v7"/><path d="m158.5 46v7"/><path d="m145 49.5h14"/><path d="m295 .5h-7"/><path d="m295 10.5h-7"/><path d="m291.5 0v11"/><path d="m295 90.5h-7"/><path d="m295 116.5h-7"/><path d="m291.5 90v27"/><path d="m344.5 53v-7"/><path d="m331.5 53v-7"/><path d="m344.5 49.5h-13.5"/><path d="m437.5 53v-7"/><path d="m424.5 53v-7"/><path d="m437.5 49.5h-13.5"/><path d="m542.5 53v-7"/><path d="m517.5 53v-7"/><path d="m542.5 49.5h-25.5"/><path d="m7 89.5h-7"/><path d="m7 94.5h-7"/><path d="m3.5 89v6"/><path d="m576 290.5h-7"/><path d="m576 307.5h-7"/><path d="m572.5 290v18"/><path d="m511.5 258v7"/><path d="m540.5 258v7"/><path d="m511 261.5h30"/><path d="m417.5 258v7"/><path d="m446.5 258v7"/><path d="m418 261.5h29"/><path d="m332.5 258v7"/><path d="m352.5 258v7"/><path d="m333 261.5h20"/><path d="m576 220.5h-7"/><path d="m576 225.5h-7"/><path d="m572.5 220v6"/></g></g></svg>